<svg xmlns="http://www.w3.org/2000/svg" xmlns:xlink="http://www.w3.org/1999/xlink" width="74.349" height="74.35" viewBox="0 0 74.349 74.35"><defs><style>.a{fill:url(#a);}</style><linearGradient id="a" x1="0.108" x2="1.318" y2="1.341" gradientUnits="objectBoundingBox"><stop offset="0" stop-color="#10fdfd"/><stop offset="1" stop-color="#087f7f"/></linearGradient></defs><path class="a" d="M64.332,0H10.021A10.019,10.019,0,0,0,0,10.019V64.331A10.019,10.019,0,0,0,10.021,74.35H36.807l.046-26.569h-6.9a1.629,1.629,0,0,1-1.629-1.622l-.033-8.564a1.629,1.629,0,0,1,1.629-1.635h6.89V27.685c0-9.6,5.865-14.832,14.432-14.832h7.03A1.629,1.629,0,0,1,59.9,14.481V21.7a1.629,1.629,0,0,1-1.628,1.629l-4.314,0c-4.659,0-5.561,2.214-5.561,5.463V35.96H58.631a1.629,1.629,0,0,1,1.617,1.82l-1.015,8.564a1.629,1.629,0,0,1-1.617,1.437H48.44L48.394,74.35H64.333A10.019,10.019,0,0,0,74.351,64.331V10.019A10.019,10.019,0,0,0,64.332,0Z" transform="translate(-0.002)"/></svg>