<svg xmlns="http://www.w3.org/2000/svg" width="37.289" height="37.289" viewBox="0 0 37.289 37.289"><defs><style>.a{fill:#2b2b2b;}</style></defs><path class="a" d="M32.266,0H5.027A5.025,5.025,0,0,0,0,5.025v27.24a5.025,5.025,0,0,0,5.025,5.025H18.461l.023-13.325H15.022a.817.817,0,0,1-.817-.814l-.017-4.3a.817.817,0,0,1,.817-.82h3.456v-4.15c0-4.816,2.942-7.439,7.238-7.439h3.526a.817.817,0,0,1,.817.817v3.622a.817.817,0,0,1-.816.817H27.062c-2.337,0-2.789,1.11-2.789,2.74v3.593h5.134a.817.817,0,0,1,.811.913l-.509,4.3a.817.817,0,0,1-.811.721H24.3l-.023,13.325h7.994a5.025,5.025,0,0,0,5.025-5.025V5.025A5.025,5.025,0,0,0,32.266,0Z" transform="translate(-0.002)"/></svg>