<svg xmlns="http://www.w3.org/2000/svg" xmlns:xlink="http://www.w3.org/1999/xlink" width="83" height="80" viewBox="0 0 83 80"><defs><style>.a{fill:url(#a);}.b{fill:#fff;}</style><linearGradient id="a" x1="0.032" y1="0.033" x2="1.522" y2="1.513" gradientUnits="objectBoundingBox"><stop offset="0" stop-color="#10ffff"/><stop offset="1" stop-color="#058787"/></linearGradient></defs><g transform="translate(-20106 -3535)"><rect class="a" width="83" height="80" rx="10" transform="translate(20106 3535)"/><g transform="translate(20122 3563)"><g transform="translate(0)"><path class="b" d="M67.606,141.511a11.508,11.508,0,0,0-11.356,9.583H50.157a11.53,11.53,0,1,0,0,3.856h6.093a11.514,11.514,0,1,0,11.356-13.439ZM38.8,160.7a7.664,7.664,0,1,1,7.674-7.674A7.682,7.682,0,0,1,38.8,160.7Zm28.805,0a7.664,7.664,0,1,1,7.655-7.674A7.669,7.669,0,0,1,67.606,160.7Z" transform="translate(-27.27 -141.511)"/></g></g></g></svg>