<svg xmlns="http://www.w3.org/2000/svg" xmlns:xlink="http://www.w3.org/1999/xlink" width="83" height="80" viewBox="0 0 83 80"><defs><style>.a{fill:url(#a);}.b{fill:#fff;}</style><linearGradient id="a" x1="0.032" y1="0.033" x2="1.522" y2="1.513" gradientUnits="objectBoundingBox"><stop offset="0" stop-color="#10ffff"/><stop offset="1" stop-color="#058787"/></linearGradient></defs><g transform="translate(-974 -1277)"><rect class="a" width="83" height="80" rx="10" transform="translate(974 1277)"/><g transform="translate(991 1303)"><g transform="translate(0 0)"><g transform="translate(39.091)"><path class="b" d="M241.686,147.5h-4.005v-2.718a2.168,2.168,0,0,0-2.166-2.166h-3.944v-4.005h3.944a6.178,6.178,0,0,1,6.171,6.171Z" transform="translate(-231.571 -138.607)"/></g><path class="b" d="M167.255,147.8H163.25v-3.025a6.178,6.178,0,0,1,6.171-6.171h3.9v4.005h-3.9a2.168,2.168,0,0,0-2.166,2.166Z" transform="translate(-163.25 -138.607)"/><g transform="translate(39.091 18.902)"><path class="b" d="M235.515,180.532h-3.944v-4.005h3.944a2.169,2.169,0,0,0,2.166-2.166v-2.718h4.005v2.718A6.178,6.178,0,0,1,235.515,180.532Z" transform="translate(-231.571 -171.643)"/></g><g transform="translate(0 18.596)"><path class="b" d="M173.324,180.3h-3.9a6.178,6.178,0,0,1-6.171-6.171v-3.025h4.005v3.025a2.169,2.169,0,0,0,2.166,2.166h3.9Z" transform="translate(-163.25 -171.107)"/></g></g><g transform="translate(21.17 10.463)"><circle class="b" cx="3.433" cy="3.433" r="3.433"/></g></g></g></svg>