<svg xmlns="http://www.w3.org/2000/svg" xmlns:xlink="http://www.w3.org/1999/xlink" width="83" height="80" viewBox="0 0 83 80"><defs><style>.a{fill:url(#a);}.b{fill:#fff;}</style><linearGradient id="a" x1="0.032" y1="0.033" x2="1.522" y2="1.513" gradientUnits="objectBoundingBox"><stop offset="0" stop-color="#10ffff"/><stop offset="1" stop-color="#058787"/></linearGradient></defs><g transform="translate(-19778 -3867)"><rect class="a" width="83" height="80" rx="10" transform="translate(19778 3867)"/><g transform="translate(31424.924 -16297.717)"><g transform="translate(-11622.094 20187.717)"><path class="b" d="M696.618,166.013a17.118,17.118,0,1,1,17.118-17.118A17.137,17.137,0,0,1,696.618,166.013Zm0-29.537a12.419,12.419,0,1,0,12.419,12.419A12.433,12.433,0,0,0,696.618,136.476Z" transform="translate(-679.5 -131.777)"/></g><g transform="translate(-11592.649 20195.158)"><g transform="translate(0 5.388)"><ellipse class="b" cx="3.021" cy="5.946" rx="3.021" ry="5.946" transform="translate(0 5.605) rotate(-68.084)"/></g><g transform="translate(7.419 1.597)"><ellipse class="b" cx="2.613" cy="5.946" rx="2.613" ry="5.946" transform="translate(0 0.335) rotate(-3.675)"/></g><g transform="translate(7.141 0)"><ellipse class="b" cx="2.014" cy="1.678" rx="2.014" ry="1.678"/></g></g><g transform="translate(-11630.925 20195.158)"><g transform="translate(0.108 5.388)"><ellipse class="b" cx="5.946" cy="3.021" rx="5.946" ry="3.021" transform="translate(0 4.439) rotate(-21.916)"/></g><g transform="translate(0 1.597)"><ellipse class="b" cx="5.946" cy="2.613" rx="5.946" ry="2.613" transform="translate(0 11.868) rotate(-86.325)"/></g><g transform="translate(2.228 0)"><ellipse class="b" cx="2.014" cy="1.678" rx="2.014" ry="1.678"/></g></g><g transform="translate(-11608.332 20201.291)"><circle class="b" cx="3.356" cy="3.356" r="3.356" transform="translate(0 0)"/></g></g></g></svg>