<svg xmlns="http://www.w3.org/2000/svg" xmlns:xlink="http://www.w3.org/1999/xlink" width="107" height="107" viewBox="0 0 107 107"><defs><style>.a{fill:#fff;}.b{fill:#03a5a5;}.c{filter:url(#c);}.d{filter:url(#a);}</style><filter id="a" x="0" y="0" width="107" height="107" filterUnits="userSpaceOnUse"><feOffset dy="10" input="SourceAlpha"/><feGaussianBlur stdDeviation="5" result="b"/><feFlood flood-opacity="0.161"/><feComposite operator="in" in2="b"/><feComposite in="SourceGraphic"/></filter><filter id="c" x="27" y="21.93" width="53.889" height="49.403" filterUnits="userSpaceOnUse"><feOffset dy="3" input="SourceAlpha"/><feGaussianBlur stdDeviation="3" result="d"/><feFlood flood-color="#03a5a5" flood-opacity="0.161"/><feComposite operator="in" in2="d"/><feComposite in="SourceGraphic"/></filter></defs><g transform="translate(-907 -7688)"><g class="d" transform="matrix(1, 0, 0, 1, 907, 7688)"><circle class="a" cx="38.5" cy="38.5" r="38.5" transform="translate(15 5)"/></g><g class="c" transform="matrix(1, 0, 0, 1, 907, 7688)"><path class="b" d="M32.4,4.395a9.585,9.585,0,0,0-13.08.953L17.944,6.771,16.563,5.348a9.585,9.585,0,0,0-13.08-.953A10.065,10.065,0,0,0,2.79,18.968l13.563,14a2.2,2.2,0,0,0,3.175,0l13.563-14A10.059,10.059,0,0,0,32.4,4.395Z" transform="translate(36 25.68)"/></g></g></svg>