<svg xmlns="http://www.w3.org/2000/svg" width="1142.769" height="189.619" viewBox="0 0 1142.769 189.619"><defs><style>.a{fill:#03a5a5;}</style></defs><g transform="translate(-389 -7978)"><g transform="translate(572.066 7978)"><path class="a" d="M2222.537,7631.5c1.968-1.827,3.409-3.19,4.876-4.524a3.418,3.418,0,0,1,5.125.013q10.795,10.625,21.5,21.339a3.343,3.343,0,0,1-.068,5.081q-10.56,10.537-21.184,21.012c-1.921,1.89-3.5,1.878-5.379.022q-10.629-10.482-21.191-21.032c-1.807-1.8-1.883-3.408-.131-5.185,4.855-4.925,9.784-9.778,15.064-15.04,1.72,1.859,3.932,3.376,4.822,5.452.92,2.148,2.215,4.373,2.62,6.5.731,3.835.271,7.9.181,11.872-.013.587-.654,1.221-1.122,1.724a3.661,3.661,0,0,0,4.979,5.367,3.714,3.714,0,0,0,.273-5.16,5.549,5.549,0,0,1-1.1-2.858c-.126-3.731-.051-7.47-.051-11.849,1.925,1.892,3.5,3.361,4.957,4.943.292.319.162,1.065.147,1.612a3.675,3.675,0,0,0,3.406,3.882,3.575,3.575,0,0,0,3.972-3.517,3.763,3.763,0,0,0-3.515-3.815,6.277,6.277,0,0,1-2.791-1.145,13.584,13.584,0,0,1-2.827-2.779,6.979,6.979,0,0,1-1.161-2.761c-.366-1.829-1.193-3.508-3.116-3.43-2.073.084-3.049-1.11-4.274-2.245C2225.36,7633.884,2224.105,7632.858,2222.537,7631.5Z" transform="translate(-2204.815 -7625.83)"/><path class="a" d="M2360.954,7658.432c1.276,2.547,1.884,4.961.83,7.552-1.645,4.04-5.727,5.981-11.734,5.331-1.612-.174-2.537.2-2.885,1.99,2.768.2,5.463.362,8.154.587a34.51,34.51,0,0,1,3.726.5c2.922.569,5.1,2.007,5.494,5.2.387,3.1-.575,5.816-3.284,7.413a15.254,15.254,0,0,1-6.174,2.175,49.986,49.986,0,0,1-9.912-.286c-5.185-.595-8.333-5.153-3.744-10.087-2.643-3.523-2.559-3.861,2.347-8.982a8.762,8.762,0,0,1-3.745-7.668c.195-4.127,2.34-7.143,6.381-8.255a19.359,19.359,0,0,1,5.243-.645c3.834.032,7.666.369,11.5.39,1.579.008,1.878.644,1.808,1.974-.064,1.2.433,2.645-1.682,2.5A12.419,12.419,0,0,0,2360.954,7658.432Zm-5.25,3.716c-.033-2.523-1.64-4-4.259-3.918-2.786.088-4.356,1.573-4.372,4.133-.016,2.472,1.539,3.889,4.276,3.9S2355.738,7664.706,2355.7,7662.148Zm-4.8,22.725a26.086,26.086,0,0,0,4.54-.8c.708-.248,1.13-1.305,1.681-2-.637-.486-1.232-1.314-1.919-1.4a55.733,55.733,0,0,0-7.9-.5,2.813,2.813,0,0,0-1.964,1.768,2.494,2.494,0,0,0,1.258,2.088A22.035,22.035,0,0,0,2350.9,7684.873Z" transform="translate(-2279.443 -7641.061)"/><path class="a" d="M2442.18,7635.937v7.01h7.034V7648h-6.96c0,4.239-.049,8.194.021,12.148.035,1.967,1.225,2.941,3.178,2.822,1.235-.076,2.458-.339,3.872-.545l1.367,4.149c-4.155,1.91-8.283,2.943-12.6,1.123-2.878-1.214-3.3-3.956-3.358-6.674-.07-3.451.009-6.905.006-10.358,0-.792-.075-1.583-.123-2.5l-3.574-.336a10.491,10.491,0,0,1,.057-2.713,2.664,2.664,0,0,1,1.363-1.709c2.557-.748,4.264-2.393,4.471-4.9.216-2.611,1.573-2.907,3.617-2.682C2440.991,7635.866,2441.431,7635.883,2442.18,7635.937Z" transform="translate(-2330.411 -7631.342)"/><path class="a" d="M2404.578,7673.589c0-4.712.067-9.255-.073-13.792a2.671,2.671,0,0,0-1.586-1.9c-1.984-.588-1.286-1.923-1.227-3.167.068-1.421.942-1.6,2.107-1.587,2.64.039,5.281.012,8.183.012v20.411l3.114.721v3.9c-4.253,0-8.432.033-12.609-.054-.387-.008-.971-.726-1.087-1.2a11.673,11.673,0,0,1-.049-2.563Z" transform="translate(-2313.928 -7641)"/><path class="a" d="M2410.178,7625.918c3.05.044,4.439,1.379,4.406,4.233-.033,2.912-1.607,4.406-4.6,4.362-2.727-.04-4.223-1.657-4.2-4.544C2405.807,7627.346,2407.4,7625.878,2410.178,7625.918Z" transform="translate(-2316.418 -7625.878)"/></g><g transform="translate(1068.197 8117.609)"><path class="a" d="M2222.537,7631.5c1.968-1.827,3.409-3.19,4.876-4.524a3.418,3.418,0,0,1,5.125.013q10.795,10.625,21.5,21.339a3.343,3.343,0,0,1-.068,5.081q-10.56,10.537-21.184,21.012c-1.921,1.89-3.5,1.878-5.379.022q-10.629-10.482-21.191-21.032c-1.807-1.8-1.883-3.408-.131-5.185,4.855-4.925,9.784-9.778,15.064-15.04,1.72,1.859,3.932,3.376,4.822,5.452.92,2.148,2.215,4.373,2.62,6.5.731,3.835.271,7.9.181,11.872-.013.587-.654,1.221-1.122,1.724a3.661,3.661,0,0,0,4.979,5.367,3.714,3.714,0,0,0,.273-5.16,5.549,5.549,0,0,1-1.1-2.858c-.126-3.731-.051-7.47-.051-11.849,1.925,1.892,3.5,3.361,4.957,4.943.292.319.162,1.065.147,1.612a3.675,3.675,0,0,0,3.406,3.882,3.575,3.575,0,0,0,3.972-3.517,3.763,3.763,0,0,0-3.515-3.815,6.277,6.277,0,0,1-2.791-1.145,13.584,13.584,0,0,1-2.827-2.779,6.979,6.979,0,0,1-1.161-2.761c-.366-1.829-1.193-3.508-3.116-3.43-2.073.084-3.049-1.11-4.274-2.245C2225.36,7633.884,2224.105,7632.858,2222.537,7631.5Z" transform="translate(-2204.815 -7625.83)"/><path class="a" d="M2360.954,7658.432c1.276,2.547,1.884,4.961.83,7.552-1.645,4.04-5.727,5.981-11.734,5.331-1.612-.174-2.537.2-2.885,1.99,2.768.2,5.463.362,8.154.587a34.51,34.51,0,0,1,3.726.5c2.922.569,5.1,2.007,5.494,5.2.387,3.1-.575,5.816-3.284,7.413a15.254,15.254,0,0,1-6.174,2.175,49.986,49.986,0,0,1-9.912-.286c-5.185-.595-8.333-5.153-3.744-10.087-2.643-3.523-2.559-3.861,2.347-8.982a8.762,8.762,0,0,1-3.745-7.668c.195-4.127,2.34-7.143,6.381-8.255a19.359,19.359,0,0,1,5.243-.645c3.834.032,7.666.369,11.5.39,1.579.008,1.878.644,1.808,1.974-.064,1.2.433,2.645-1.682,2.5A12.419,12.419,0,0,0,2360.954,7658.432Zm-5.25,3.716c-.033-2.523-1.64-4-4.259-3.918-2.786.088-4.356,1.573-4.372,4.133-.016,2.472,1.539,3.889,4.276,3.9S2355.738,7664.706,2355.7,7662.148Zm-4.8,22.725a26.086,26.086,0,0,0,4.54-.8c.708-.248,1.13-1.305,1.681-2-.637-.486-1.232-1.314-1.919-1.4a55.733,55.733,0,0,0-7.9-.5,2.813,2.813,0,0,0-1.964,1.768,2.494,2.494,0,0,0,1.258,2.088A22.035,22.035,0,0,0,2350.9,7684.873Z" transform="translate(-2279.443 -7641.061)"/><path class="a" d="M2442.18,7635.937v7.01h7.034V7648h-6.96c0,4.239-.049,8.194.021,12.148.035,1.967,1.225,2.941,3.178,2.822,1.235-.076,2.458-.339,3.872-.545l1.367,4.149c-4.155,1.91-8.283,2.943-12.6,1.123-2.878-1.214-3.3-3.956-3.358-6.674-.07-3.451.009-6.905.006-10.358,0-.792-.075-1.583-.123-2.5l-3.574-.336a10.491,10.491,0,0,1,.057-2.713,2.664,2.664,0,0,1,1.363-1.709c2.557-.748,4.264-2.393,4.471-4.9.216-2.611,1.573-2.907,3.617-2.682C2440.991,7635.866,2441.431,7635.883,2442.18,7635.937Z" transform="translate(-2330.411 -7631.342)"/><path class="a" d="M2404.578,7673.589c0-4.712.067-9.255-.073-13.792a2.671,2.671,0,0,0-1.586-1.9c-1.984-.588-1.286-1.923-1.227-3.167.068-1.421.942-1.6,2.107-1.587,2.64.039,5.281.012,8.183.012v20.411l3.114.721v3.9c-4.253,0-8.432.033-12.609-.054-.387-.008-.971-.726-1.087-1.2a11.673,11.673,0,0,1-.049-2.563Z" transform="translate(-2313.928 -7641)"/><path class="a" d="M2410.178,7625.918c3.05.044,4.439,1.379,4.406,4.233-.033,2.912-1.607,4.406-4.6,4.362-2.727-.04-4.223-1.657-4.2-4.544C2405.807,7627.346,2407.4,7625.878,2410.178,7625.918Z" transform="translate(-2316.418 -7625.878)"/></g><g transform="translate(897.912 7979.485)"><path class="a" d="M2677.145,7707.492c-.168,1.319-.273,2.529-.488,3.72a2.655,2.655,0,0,1-2.954,2.359c-.492-.005-.984,0-1.477,0H2567.38c.282-2.132.533-4.031.805-6.082Z" transform="translate(-2555.941 -7667.522)"/><path class="a" d="M2553.916,7676.133c-.514,3.167-1,6.141-1.493,9.2h-8.272c1.659-11.086,3.3-22.041,4.96-33.145,5.894,0,11.639-.314,17.333.094,5.017.36,7.937,4.735,7.27,9.832-.181,1.379-.385,2.756-.6,4.13a11.824,11.824,0,0,1-11.246,9.875C2559.328,7676.2,2556.788,7676.133,2553.916,7676.133Zm1.2-8.292c2.484,0,4.606.083,6.719-.021,2.516-.124,3.794-2.013,3.741-5.363-.04-2.556-1.808-2.748-3.759-2.713-1.78.032-3.561.007-5.461.007C2555.937,7662.512,2555.555,7665.006,2555.12,7667.841Z" transform="translate(-2544.151 -7639.393)"/><path class="a" d="M2765.721,7676.124c-6.582,0-13.056.106-19.525-.044-3.362-.078-5.488-2.907-5.015-6.25.54-3.808,1.1-7.615,1.771-11.4a7.222,7.222,0,0,1,7.561-6.3c4.1-.03,8.2-.041,12.3,0,3.987.042,6.231,2.588,5.737,6.525-.3,2.43-.751,4.842-1.2,7.664h-6.731c-2.952,0-5.9.057-8.855-.022-1.575-.042-2.1.574-1.661,2.4,3.4,0,6.9.167,10.377-.036C2766.984,7668.283,2767.123,7670.258,2765.721,7676.124Zm-15.083-15.535c3.288,0,6.04.029,8.791-.036a1.274,1.274,0,0,0,.95-.8c.045-.378-.353-1.161-.575-1.167-2.6-.067-5.213-.079-7.811.064C2751.625,7658.674,2751.307,7659.6,2750.638,7660.589Z" transform="translate(-2644.126 -7639.406)"/><path class="a" d="M2712.77,7652.216c-.161,1.243-.29,2.284-.43,3.324-.4,2.943-1.092,3.641-4.133,3.714-3.608.085-7.219.022-10.828.052-.747.006-1.492.134-2.237.205l-.084.775a7.679,7.679,0,0,0,1.737.439c2.87.048,5.744-.042,8.613.047,3.886.119,5.939,2.676,5.371,6.536-.143.972-.3,1.94-.448,2.911-.517,3.444-2.756,5.807-6.212,5.895-6.382.162-12.772.047-19.506.047.278-1.933.223-3.806.9-5.365a4.067,4.067,0,0,1,2.988-1.88c3.759-.246,7.541-.1,11.313-.178a8.285,8.285,0,0,0,2.014-.565l-.157-.976c-2.828,0-5.655.006-8.482,0-5.127-.013-7.06-2.228-6.041-7.261a16.649,16.649,0,0,1,2.129-5.605,4.95,4.95,0,0,1,3.459-2.021C2699.356,7652.114,2705.989,7652.216,2712.77,7652.216Z" transform="translate(-2615.446 -7639.452)"/><path class="a" d="M2608.625,7652.12c1.67,0,3.054-.013,4.437,0,2.889.036,4,1.226,3.647,4.167-.327,2.759-.861,5.495-1.258,8.247-.411,2.847.019,3.327,2.885,3.347,1.229.009,2.458-.009,3.686-.025a5.952,5.952,0,0,0,.825-.183q1.168-7.492,2.4-15.391h8.536c-1.175,7.943-2.338,15.807-3.523,23.822-6.466,0-12.763.157-19.046-.062-3.453-.122-5.553-3.322-5.045-7.4C2606.845,7663.217,2607.766,7657.816,2608.625,7652.12Z" transform="translate(-2575.591 -7639.415)"/><path class="a" d="M2669.7,7662.942h-8.685q2.75-18.278,5.437-36.147c.294-.173.426-.314.569-.327,7.1-.628,8.152.6,7.039,7.569C2672.539,7643.574,2671.174,7653.137,2669.7,7662.942Z" transform="translate(-2603.47 -7626.323)"/></g><g transform="translate(1407.278 8117.609)"><path class="a" d="M2677.145,7707.492c-.168,1.319-.273,2.529-.488,3.72a2.655,2.655,0,0,1-2.954,2.359c-.492-.005-.984,0-1.477,0H2567.38c.282-2.132.533-4.031.805-6.082Z" transform="translate(-2555.941 -7667.522)"/><path class="a" d="M2553.916,7676.133c-.514,3.167-1,6.141-1.493,9.2h-8.272c1.659-11.086,3.3-22.041,4.96-33.145,5.894,0,11.639-.314,17.333.094,5.017.36,7.937,4.735,7.27,9.832-.181,1.379-.385,2.756-.6,4.13a11.824,11.824,0,0,1-11.246,9.875C2559.328,7676.2,2556.788,7676.133,2553.916,7676.133Zm1.2-8.292c2.484,0,4.606.083,6.719-.021,2.516-.124,3.794-2.013,3.741-5.363-.04-2.556-1.808-2.748-3.759-2.713-1.78.032-3.561.007-5.461.007C2555.937,7662.512,2555.555,7665.006,2555.12,7667.841Z" transform="translate(-2544.151 -7639.393)"/><path class="a" d="M2765.721,7676.124c-6.582,0-13.056.106-19.525-.044-3.362-.078-5.488-2.907-5.015-6.25.54-3.808,1.1-7.615,1.771-11.4a7.222,7.222,0,0,1,7.561-6.3c4.1-.03,8.2-.041,12.3,0,3.987.042,6.231,2.588,5.737,6.525-.3,2.43-.751,4.842-1.2,7.664h-6.731c-2.952,0-5.9.057-8.855-.022-1.575-.042-2.1.574-1.661,2.4,3.4,0,6.9.167,10.377-.036C2766.984,7668.283,2767.123,7670.258,2765.721,7676.124Zm-15.083-15.535c3.288,0,6.04.029,8.791-.036a1.274,1.274,0,0,0,.95-.8c.045-.378-.353-1.161-.575-1.167-2.6-.067-5.213-.079-7.811.064C2751.625,7658.674,2751.307,7659.6,2750.638,7660.589Z" transform="translate(-2644.126 -7639.406)"/><path class="a" d="M2712.77,7652.216c-.161,1.243-.29,2.284-.43,3.324-.4,2.943-1.092,3.641-4.133,3.714-3.608.085-7.219.022-10.828.052-.747.006-1.492.134-2.237.205l-.084.775a7.679,7.679,0,0,0,1.737.439c2.87.048,5.744-.042,8.613.047,3.886.119,5.939,2.676,5.371,6.536-.143.972-.3,1.94-.448,2.911-.517,3.444-2.756,5.807-6.212,5.895-6.382.162-12.772.047-19.506.047.278-1.933.223-3.806.9-5.365a4.067,4.067,0,0,1,2.988-1.88c3.759-.246,7.541-.1,11.313-.178a8.285,8.285,0,0,0,2.014-.565l-.157-.976c-2.828,0-5.655.006-8.482,0-5.127-.013-7.06-2.228-6.041-7.261a16.649,16.649,0,0,1,2.129-5.605,4.95,4.95,0,0,1,3.459-2.021C2699.356,7652.114,2705.989,7652.216,2712.77,7652.216Z" transform="translate(-2615.447 -7639.452)"/><path class="a" d="M2608.625,7652.12c1.67,0,3.054-.013,4.437,0,2.889.036,4,1.226,3.647,4.167-.327,2.759-.861,5.495-1.258,8.247-.411,2.847.019,3.327,2.885,3.347,1.229.009,2.458-.009,3.686-.025a5.952,5.952,0,0,0,.825-.183q1.168-7.492,2.4-15.391h8.536c-1.175,7.943-2.338,15.807-3.523,23.822-6.466,0-12.763.157-19.046-.062-3.453-.122-5.553-3.322-5.045-7.4C2606.845,7663.217,2607.766,7657.816,2608.625,7652.12Z" transform="translate(-2575.592 -7639.415)"/><path class="a" d="M2669.7,7662.942h-8.685q2.75-18.278,5.437-36.147c.294-.173.426-.314.569-.327,7.1-.628,8.152.6,7.039,7.569C2672.539,7643.574,2671.174,7653.137,2669.7,7662.942Z" transform="translate(-2603.47 -7626.323)"/></g><g transform="translate(389 8113.153)"><path class="a" d="M2677.145,7707.492c-.168,1.319-.273,2.529-.488,3.72a2.655,2.655,0,0,1-2.954,2.359c-.492-.005-.984,0-1.477,0H2567.38c.282-2.132.533-4.031.805-6.082Z" transform="translate(-2555.941 -7667.522)"/><path class="a" d="M2553.916,7676.133c-.514,3.167-1,6.141-1.493,9.2h-8.272c1.659-11.086,3.3-22.041,4.96-33.145,5.894,0,11.639-.314,17.333.094,5.017.36,7.937,4.735,7.27,9.832-.181,1.379-.385,2.756-.6,4.13a11.824,11.824,0,0,1-11.246,9.875C2559.328,7676.2,2556.788,7676.133,2553.916,7676.133Zm1.2-8.292c2.484,0,4.606.083,6.719-.021,2.516-.124,3.794-2.013,3.741-5.363-.04-2.556-1.808-2.748-3.759-2.713-1.78.032-3.561.007-5.461.007C2555.937,7662.512,2555.555,7665.006,2555.12,7667.841Z" transform="translate(-2544.151 -7639.393)"/><path class="a" d="M2765.721,7676.124c-6.582,0-13.056.106-19.525-.044-3.362-.078-5.488-2.907-5.015-6.25.54-3.808,1.1-7.615,1.771-11.4a7.222,7.222,0,0,1,7.561-6.3c4.1-.03,8.2-.041,12.3,0,3.987.042,6.231,2.588,5.737,6.525-.3,2.43-.751,4.842-1.2,7.664h-6.731c-2.952,0-5.9.057-8.855-.022-1.575-.042-2.1.574-1.661,2.4,3.4,0,6.9.167,10.377-.036C2766.984,7668.283,2767.123,7670.258,2765.721,7676.124Zm-15.083-15.535c3.288,0,6.04.029,8.791-.036a1.274,1.274,0,0,0,.95-.8c.045-.378-.353-1.161-.575-1.167-2.6-.067-5.213-.079-7.811.064C2751.625,7658.674,2751.307,7659.6,2750.638,7660.589Z" transform="translate(-2644.126 -7639.406)"/><path class="a" d="M2712.77,7652.216c-.161,1.243-.29,2.284-.43,3.324-.4,2.943-1.092,3.641-4.133,3.714-3.608.085-7.219.022-10.828.052-.747.006-1.492.134-2.237.205l-.084.775a7.679,7.679,0,0,0,1.737.439c2.87.048,5.744-.042,8.613.047,3.886.119,5.939,2.676,5.371,6.536-.143.972-.3,1.94-.448,2.911-.517,3.444-2.756,5.807-6.212,5.895-6.382.162-12.772.047-19.506.047.278-1.933.223-3.806.9-5.365a4.067,4.067,0,0,1,2.988-1.88c3.759-.246,7.541-.1,11.313-.178a8.285,8.285,0,0,0,2.014-.565l-.157-.976c-2.828,0-5.655.006-8.482,0-5.127-.013-7.06-2.228-6.041-7.261a16.649,16.649,0,0,1,2.129-5.605,4.95,4.95,0,0,1,3.459-2.021C2699.356,7652.114,2705.989,7652.216,2712.77,7652.216Z" transform="translate(-2615.447 -7639.452)"/><path class="a" d="M2608.625,7652.12c1.67,0,3.054-.013,4.437,0,2.889.036,4,1.226,3.647,4.167-.327,2.759-.861,5.495-1.258,8.247-.411,2.847.019,3.327,2.885,3.347,1.229.009,2.458-.009,3.686-.025a5.952,5.952,0,0,0,.825-.183q1.168-7.492,2.4-15.391h8.536c-1.175,7.943-2.338,15.807-3.523,23.822-6.466,0-12.763.157-19.046-.062-3.453-.122-5.553-3.322-5.045-7.4C2606.845,7663.217,2607.766,7657.816,2608.625,7652.12Z" transform="translate(-2575.592 -7639.415)"/><path class="a" d="M2669.7,7662.942h-8.685q2.75-18.278,5.437-36.147c.294-.173.426-.314.569-.327,7.1-.628,8.152.6,7.039,7.569C2672.539,7643.574,2671.174,7653.137,2669.7,7662.942Z" transform="translate(-2603.47 -7626.323)"/></g><g transform="translate(1228.165 7994.338)"><path class="a" d="M2781.433,7918.669c-2.656,8.057-12.294,8.355-17.1,4.61-.814-.634-1.639-1.257-2.574-1.973,1.078-1.863,2.107-3.642,3.162-5.464a30.854,30.854,0,0,0,4.217,2.251,12.527,12.527,0,0,0,3.986.524c.412,0,1.055-.636,1.174-1.091.085-.326-.436-1-.847-1.225a14.6,14.6,0,0,0-2.457-.894c-.986-.325-2-.58-2.965-.954-3.679-1.423-5.87-4.437-5.624-7.667a8.478,8.478,0,0,1,6.591-7.523c4.785-1.2,8.659.634,12.281,3.771l-3.067,5.286a32.2,32.2,0,0,0-3.951-2.055,8.436,8.436,0,0,0-3.362-.4c-.548.038-1.051.75-1.574,1.157.44.435.808,1.023,1.336,1.266a12.381,12.381,0,0,0,2.531.684c4.019.874,7.034,2.91,8.245,7.06Z" transform="translate(-2619.73 -7892.318)"/><path class="a" d="M2338.4,7878.929v7.111h6.5v7.757h-6.337c0,2.286-.167,4.364.044,6.4.237,2.281,1.363,3.177,3.683,3.462.86.106,1.722.19,2.644.29v7.409c-6.476,1.019-12.9-2.57-14.089-9.624-.079-.473-.232-.933-.35-1.4v-21.41Z" transform="translate(-2330.5 -7878.929)"/><path class="a" d="M2577.232,7912.211a13.393,13.393,0,1,1-13.482-13.277A13.339,13.339,0,0,1,2577.232,7912.211Zm-13.256-5.4a5.465,5.465,0,0,0-.333,10.925,5.466,5.466,0,1,0,.333-10.925Z" transform="translate(-2478.012 -7892.346)"/><path class="a" d="M2389.113,7900.975h7.612c0,1.4,0,2.75,0,4.1.008,3.184-.017,6.367.038,9.55.049,2.84,1.63,4.5,4.149,4.483,2.44-.017,3.994-1.66,4.034-4.423.058-3.895.034-7.791.045-11.687,0-.643,0-1.285,0-2.012h8.094c-.206,5.639-.009,11.257-.724,16.757-.728,5.6-6.245,9.476-11.914,9.234-5.911-.25-10.818-4.4-11.254-10.209C2388.806,7911.6,2389.113,7906.372,2389.113,7900.975Z" transform="translate(-2369.732 -7893.715)"/><path class="a" d="M2495.818,7904.215l-6.1,4.588c-2.632-2.462-6-2.975-8.655-.215a5.4,5.4,0,0,0,.088,7.454c2.266,2.354,5.337,2.254,8.552-.326l6.005,4.5c-2.456,4.076-8.414,6.243-13.662,5.036a13.457,13.457,0,0,1-10.259-12.232,13.4,13.4,0,0,1,24.033-8.8Z" transform="translate(-2425.233 -7892.335)"/><path class="a" d="M2723.408,7900.747l-15.262,26.261c-1.523-2.6-2.959-5-4.318-7.442-.149-.268.057-.837.253-1.177q4.847-8.391,9.76-16.741a1.807,1.807,0,0,1,1.189-.861C2717.71,7900.709,2720.391,7900.747,2723.408,7900.747Z" transform="translate(-2580.845 -7893.556)"/><path class="a" d="M2664.158,7927.028c-1.479-2.542-2.856-4.833-4.133-7.18a1.794,1.794,0,0,1,.119-1.471q4.811-8.405,9.721-16.754a1.668,1.668,0,0,1,1.062-.823c2.72-.069,5.442-.038,8.492-.038Z" transform="translate(-2551.428 -7893.567)"/><path class="a" d="M2642.456,7899.875a5.405,5.405,0,0,1,5.515,5.3,5.486,5.486,0,0,1-5.347,5.516,5.391,5.391,0,0,1-5.483-5.347A5.319,5.319,0,0,1,2642.456,7899.875Z" transform="translate(-2536.154 -7892.976)"/></g><g transform="translate(710.034 8125.777)"><path class="a" d="M2781.433,7918.669c-2.656,8.057-12.294,8.355-17.1,4.61-.814-.634-1.639-1.257-2.574-1.973,1.078-1.863,2.107-3.642,3.162-5.464a30.854,30.854,0,0,0,4.217,2.251,12.527,12.527,0,0,0,3.986.524c.412,0,1.055-.636,1.174-1.091.085-.326-.436-1-.847-1.225a14.6,14.6,0,0,0-2.457-.894c-.986-.325-2-.58-2.965-.954-3.679-1.423-5.87-4.437-5.624-7.667a8.478,8.478,0,0,1,6.591-7.523c4.785-1.2,8.659.634,12.281,3.771l-3.067,5.286a32.2,32.2,0,0,0-3.951-2.055,8.436,8.436,0,0,0-3.362-.4c-.548.038-1.051.75-1.574,1.157.44.435.808,1.023,1.336,1.266a12.381,12.381,0,0,0,2.531.684c4.019.874,7.034,2.91,8.245,7.06Z" transform="translate(-2619.73 -7892.318)"/><path class="a" d="M2338.4,7878.929v7.111h6.5v7.757h-6.337c0,2.286-.167,4.364.044,6.4.237,2.281,1.363,3.177,3.683,3.462.86.106,1.722.19,2.644.29v7.409c-6.476,1.019-12.9-2.57-14.089-9.624-.079-.473-.232-.933-.35-1.4v-21.41Z" transform="translate(-2330.5 -7878.929)"/><path class="a" d="M2577.232,7912.211a13.393,13.393,0,1,1-13.482-13.277A13.339,13.339,0,0,1,2577.232,7912.211Zm-13.256-5.4a5.465,5.465,0,0,0-.333,10.925,5.466,5.466,0,1,0,.333-10.925Z" transform="translate(-2478.012 -7892.346)"/><path class="a" d="M2389.113,7900.975h7.612c0,1.4,0,2.75,0,4.1.008,3.184-.017,6.367.038,9.55.049,2.84,1.63,4.5,4.149,4.483,2.44-.017,3.994-1.66,4.034-4.423.058-3.895.034-7.791.045-11.687,0-.643,0-1.285,0-2.012h8.094c-.206,5.639-.009,11.257-.724,16.757-.728,5.6-6.245,9.476-11.914,9.234-5.911-.25-10.818-4.4-11.254-10.209C2388.806,7911.6,2389.113,7906.372,2389.113,7900.975Z" transform="translate(-2369.732 -7893.715)"/><path class="a" d="M2495.818,7904.215l-6.1,4.588c-2.632-2.462-6-2.975-8.655-.215a5.4,5.4,0,0,0,.088,7.454c2.266,2.354,5.337,2.254,8.552-.326l6.005,4.5c-2.456,4.076-8.414,6.243-13.662,5.036a13.457,13.457,0,0,1-10.259-12.232,13.4,13.4,0,0,1,24.033-8.8Z" transform="translate(-2425.233 -7892.335)"/><path class="a" d="M2723.408,7900.747l-15.262,26.261c-1.523-2.6-2.959-5-4.318-7.442-.149-.268.057-.837.253-1.177q4.847-8.391,9.76-16.741a1.807,1.807,0,0,1,1.189-.861C2717.71,7900.709,2720.391,7900.747,2723.408,7900.747Z" transform="translate(-2580.845 -7893.556)"/><path class="a" d="M2664.158,7927.028c-1.479-2.542-2.856-4.833-4.133-7.18a1.794,1.794,0,0,1,.119-1.471q4.811-8.405,9.721-16.754a1.668,1.668,0,0,1,1.062-.823c2.72-.069,5.442-.038,8.492-.038Z" transform="translate(-2551.428 -7893.567)"/><path class="a" d="M2642.456,7899.875a5.405,5.405,0,0,1,5.515,5.3,5.486,5.486,0,0,1-5.347,5.516,5.391,5.391,0,0,1-5.483-5.347A5.319,5.319,0,0,1,2642.456,7899.875Z" transform="translate(-2536.154 -7892.976)"/></g></g></svg>