<svg xmlns="http://www.w3.org/2000/svg" xmlns:xlink="http://www.w3.org/1999/xlink" width="83" height="80" viewBox="0 0 83 80"><defs><style>.a{fill:url(#a);}.b{fill:#fff;}</style><linearGradient id="a" x1="0.032" y1="0.033" x2="1.522" y2="1.513" gradientUnits="objectBoundingBox"><stop offset="0" stop-color="#10ffff"/><stop offset="1" stop-color="#058787"/></linearGradient></defs><g transform="translate(-19778 -3535)"><rect class="a" width="83" height="80" rx="10" transform="translate(19778 3535)"/><g transform="translate(19513.486 3426.06)"><g transform="translate(288 130.94)"><path class="b" d="M300.139,165.7a7.108,7.108,0,0,1-6.869,1.842l4.984-4.984-5.027-5.027-4.984,4.984a7.114,7.114,0,0,1,10.2-8.126l13.01-13.01a7.114,7.114,0,0,1,8.126-10.2l-4.984,4.984,5.027,5.027,4.984-4.984a7.114,7.114,0,0,1-10.2,8.126l-13.01,13.01A7.116,7.116,0,0,1,300.139,165.7Z" transform="translate(-288 -130.94)"/></g><g transform="translate(288 130.94)"><path class="b" d="M314.405,154.391l-13.01-13.01a7.11,7.11,0,1,0-2.954,2.954l13.01,13.01a7.11,7.11,0,1,0,2.954-2.954Zm-21.493-14.14a3.111,3.111,0,1,1,5.3-2.049,3.111,3.111,0,0,1-5.3,2.049Zm27.024,22.625a3.105,3.105,0,0,1-5.3-2.348,3.111,3.111,0,0,1,5.3-2.052A3.116,3.116,0,0,1,319.936,162.876Z" transform="translate(-288 -130.94)"/></g></g></g></svg>