<svg xmlns="http://www.w3.org/2000/svg" width="107.385" height="41.688" viewBox="0 0 107.385 41.688"><defs><style>.a{fill:#fff;}</style></defs><g transform="translate(-1883.274 -374.824)"><g transform="translate(1883.274 374.824)"><path class="a" d="M1885.82,390.9a4.192,4.192,0,0,1-2.5-4.448,4.13,4.13,0,0,1,3.937-3.56q1.172-.033,2.346,0a.78.78,0,0,0,.665-.336,20,20,0,0,1,12.267-6.864,20.32,20.32,0,0,1,19.561,7.329,19.653,19.653,0,0,1,4.652,11.453,20.832,20.832,0,0,1-39.909,9.941,20.558,20.558,0,0,1-1.054-13.265C1885.8,391.081,1885.805,391,1885.82,390.9Zm20.219-10.03a15.339,15.339,0,1,0,15.324,15.458A15.318,15.318,0,0,0,1906.038,380.874Z" transform="translate(-1883.276 -375.356)"/><path class="a" d="M2563.336,395.34a20.832,20.832,0,0,1,36.567-13.328.919.919,0,0,0,.8.353c.7-.021,1.408-.017,2.113,0a4.143,4.143,0,0,1,4.036,3.974,4.07,4.07,0,0,1-3.594,4.269c-1.412.137-2.842.1-4.264.11-.127,0-.317-.207-.375-.357a15.383,15.383,0,1,0-.43,11.6c.269-.614.467-1.259.719-1.881a2.7,2.7,0,0,1,3.107-1.589,2.62,2.62,0,0,1,2.106,2.9,11.988,11.988,0,0,1-.958,2.829,20.5,20.5,0,0,1-13.316,11.476,20.829,20.829,0,0,1-26.512-20.353Z" transform="translate(-2499.473 -374.825)"/><path class="a" d="M2422.068,500.551c0-4.053-.005-8.106.006-12.159a5.787,5.787,0,0,1,.158-1.3,3.049,3.049,0,0,1,5.866-.046,4.306,4.306,0,0,1,.144,1.063q.012,12.206,0,24.412a3.188,3.188,0,0,1-1.808,3.188,3.059,3.059,0,0,1-4.365-2.861C2422.057,508.751,2422.068,504.651,2422.068,500.551Z" transform="translate(-2371.468 -474.523)"/><path class="a" d="M2424.56,382.3a3.144,3.144,0,0,1-3.142-3.123,3.154,3.154,0,1,1,6.307.022A3.143,3.143,0,0,1,2424.56,382.3Z" transform="translate(-2370.882 -375.895)"/></g></g></svg>