<svg xmlns="http://www.w3.org/2000/svg" xmlns:xlink="http://www.w3.org/1999/xlink" width="1040.17" height="674.979" viewBox="0 0 1040.17 674.979"><defs><style>.a{fill:none;}.b{fill:#03a5a5;}.c,.q{opacity:0.1;}.d,.z{opacity:0.05;}.e{fill:#eaeaea;}.f{opacity:0.2;}.g{fill:#88d1c8;}.ac,.h{fill:#fff;}.i{fill:#333;}.ab,.j{opacity:0.3;}.k{fill:#c0f8fc;}.l{fill:#3eccba;}.m{fill:#f7be3e;}.n{opacity:0.02;}.o{fill:#819b9a;}.p{fill:#f7e2f6;}.r{fill:#4646f9;}.s{fill:#5f8449;fill-rule:evenodd;}.t{fill:#f94675;}.u{fill:#657a79;}.v{fill:#a8657a;}.w{fill:#03f3f9;}.x{opacity:0.15;}.y{fill:#3d3d3d;}.aa{opacity:0.03;}.ab,.ac{font-size:13px;font-family:NunitoSans-Black, Nunito Sans;font-weight:800;}.ad{fill:#e1f9f9;}.ae{clip-path:url(#a);}.af{fill:#fefefe;}.ag{fill:#fdfdfd;}.ah{fill:#fcfcfc;}.ai{fill:#fbfbfb;}.aj{fill:#fafafa;}.ak{fill:#f9f9f9;}.al{fill:#f8f8f8;}.am{fill:#f7f7f7;}.an{fill:#f6f6f6;}.ao{fill:#f5f5f5;}.ap{fill:#f4f4f4;}.aq{fill:#f3f3f3;}.ar{fill:#f2f2f2;}.as{fill:#f1f1f1;}.at{fill:#f0f0f0;}.au{fill:#efefef;}.av{fill:#eee;}.aw{fill:#ededed;}.ax{fill:#ececec;}.ay{fill:#ebebeb;}.az{fill:#e9e9e9;}.ba{fill:#e8e8e8;}.bb{fill:#e7e7e7;}.bc{fill:#e6e6e6;}.bd{fill:#e5e5e5;}.be{fill:#e4e4e4;}.bf{fill:#e3e3e3;}.bg{fill:#e2e2e2;}.bh{fill:#e1e1e1;}.bi{fill:#e0e0e0;}.bj{fill:#dfdfdf;}.bk{fill:#dedede;}.bl{fill:#ddd;}.bm{fill:#dcdcdc;}.bn{fill:#dbdbdb;}.bo{fill:#dadada;}.bp{fill:#d9d9d9;}.bq{fill:#d8d8d8;}.br{fill:#d7d7d7;}.bs{fill:#d6d6d6;}.bt{fill:#d5d5d5;}.bu{fill:#d4d4d4;}.bv{fill:#d3d3d3;}.bw{fill:#d2d2d2;}.bx{fill:#d1d1d1;}.by{fill:#d0d0d0;}.bz{fill:#cfcfcf;}.ca{fill:#cecece;}.cb{fill:#cdcdcd;}.cc{fill:#ccc;}.cd{fill:#cbcbcb;}.ce{fill:#cacaca;}.cf{fill:#c9c9c9;}.cg{fill:#c8c8c8;}.ch{fill:#c7c7c7;}.ci{fill:#c6c6c6;}.cj{fill:#c5c5c5;}.ck{fill:#c4c4c4;}.cl{fill:#c3c3c3;}.cm{fill:#c2c2c2;}.cn{fill:#c1c1c1;}.co{fill:silver;}.cp{fill:#bfbfbf;}.cq{fill:#bebebe;}.cr{fill:#bdbdbd;}.cs{fill:#bcbcbc;}.ct{fill:#bbb;}.cu{fill:#bababa;}.cv{fill:#b9b9b9;}.cw{fill:#b8b8b8;}.cx{fill:#b7b7b7;}.cy{fill:#b6b6b6;}.cz{fill:#b5b5b5;}.da{fill:#b4b4b4;}.db{fill:#b3b3b3;}.dc{fill:#b2b2b2;}.dd{fill:#b1b1b1;}.de{fill:#b0b0b0;}.df{fill:#afafaf;}.dg{fill:#aeaeae;}.dh{fill:#adadad;}.di{fill:#acacac;}.dj{fill:#ababab;}.dk{fill:#aaa;}.dl{fill:#a9a9a9;}.dm{fill:#a8a8a8;}.dn{fill:#a7a7a7;}.do{fill:#a6a6a6;}.dp{fill:#a5a5a5;}.dq{fill:#a4a4a4;}.dr{fill:#a3a3a3;}.ds{fill:#a2a2a2;}.dt{fill:#a1a1a1;}.du{fill:#a0a0a0;}.dv{fill:#9f9f9f;}.dw{fill:#9e9e9e;}.dx{fill:#9d9d9d;}.dy{fill:#9c9c9c;}.dz{fill:#9b9b9b;}.ea{fill:#9a9a9a;}.eb{fill:#999;}.ec{fill:#989898;}.ed{fill:#979797;}.ee{fill:#969696;}.ef{fill:#959595;}.eg{fill:#949494;}.eh{fill:#939393;}.ei{fill:#929292;}.ej{fill:#919191;}.ek{fill:#909090;}.el{fill:#8f8f8f;}.em{fill:#8e8e8e;}.en{fill:#8d8d8d;}.eo{fill:#8c8c8c;}.ep{fill:#8b8b8b;}.eq{fill:#8a8a8a;}.er{fill:#898989;}.es{fill:#888;}.et{fill:#878787;}.eu{fill:#868686;}.ev{fill:#858585;}.ew{fill:#848484;}.ex{fill:#838383;}.ey{fill:#828282;}.ez{fill:#818181;}.fa{fill:gray;}.fb{fill:#7e7e7e;}.fc{fill:#7d7d7d;}.fd{fill:#7c7c7c;}.fe{fill:#7b7b7b;}.ff{fill:#7a7a7a;}.fg{fill:#797979;}.fh{fill:#787878;}.fi{fill:#777;}.fj{fill:#767676;}.fk{fill:#757575;}.fl{fill:#747474;}.fm{fill:#737373;}.fn{fill:#727272;}.fo{fill:#717171;}.fp{fill:#707070;}.fq{fill:#6f6f6f;}.fr{fill:#6e6e6e;}.fs{fill:#6d6d6d;}.ft{fill:#6c6c6c;}.fu{fill:#6b6b6b;}.fv{fill:#6a6a6a;}.fw{fill:#696969;}.fx{fill:#686868;}.fy{fill:#676767;}.fz{fill:#666;}.ga{fill:#656565;}.gb{fill:#646464;}.gc{fill:#636363;}.gd{fill:#626262;}.ge{fill:#616161;}.gf{fill:#606060;}.gg{fill:#5f5f5f;}.gh{fill:#5e5e5e;}.gi{fill:#5d5d5d;}.gj{fill:#5c5c5c;}.gk{fill:#5b5b5b;}.gl{fill:#5a5a5a;}.gm{fill:#595959;}.gn{fill:#585858;}.go{fill:#575757;}.gp{fill:#565656;}.gq{fill:#555;}.gr{fill:#545454;}.gs{fill:#535353;}.gt{fill:#525252;}.gu{fill:#515151;}.gv{fill:#505050;}.gw{fill:#4f4f4f;}.gx{fill:#4e4e4e;}.gy{fill:#4d4d4d;}.gz{fill:#4c4c4c;}.ha{fill:#4b4b4b;}.hb{fill:#4a4a4a;}.hc{fill:#494949;}.hd{fill:#484848;}.he{fill:#474747;}.hf{fill:#464646;}.hg{fill:#454545;}.hh{fill:#444;}.hi{fill:#434343;}.hj{fill:#424242;}.hk{fill:#414141;}.hl{fill:#404040;}.hm{fill:#3f3f3f;}.hn{fill:#3e3e3e;}.ho{fill:#3c3c3c;}.hp{fill:#3b3b3b;}.hq{fill:#3a3a3a;}.hr{fill:#393939;}.hs{fill:#383838;}.ht{fill:#373737;}.hu{fill:#363636;}.hv{fill:#353535;}.hw{fill:#343434;}.hx{fill:#323232;}.hy{fill:#313131;}.hz{fill:#303030;}.ia{fill:#2f2f2f;}.ib{fill:#2e2e2e;}.ic{fill:#2d2d2d;}.id{fill:#2c2c2c;}.ie{fill:#2b2b2b;}.if{fill:#2a2a2a;}.ig{fill:#292929;}.ih{fill:#282828;}.ii{fill:#272727;}.ij{fill:#262626;}.ik{fill:#252525;}.il{fill:#242424;}.im{fill:#232323;}.in{fill:#222;}.io{fill:#212121;}.ip{fill:#202020;}.iq{fill:#1f1f1f;}.ir{fill:#1e1e1e;}.is{fill:#1d1d1d;}.it{fill:#1c1c1c;}.iu{fill:#1b1b1b;}.iv{fill:#1a1a1a;}.iw{fill:#191919;}.ix{fill:#181818;}.iy{fill:#171717;}.iz{fill:#161616;}.ja{fill:#151515;}.jb{fill:#141414;}.jc{fill:#131313;}.jd{fill:#121212;}.je{fill:#111;}.jf{fill:#101010;}.jg{fill:#0f0f0f;}.jh{fill:#0e0e0e;}.ji{fill:#0d0d0d;}.jj{fill:#0c0c0c;}.jk{fill:#0b0b0b;}.jl{fill:#0a0a0a;}.jm{fill:#090909;}.jn{fill:#080808;}.jo{fill:#070707;}.jp{fill:#060606;}.jq{fill:#050505;}.jr{fill:#040404;}.js{fill:#030303;}.jt{fill:#020202;}.ju{fill:#010101;}</style><clipPath id="a"><path class="a" d="M4924,5478l203.291,48.662,205.62-5.494L5155.224,5478Z" transform="translate(-4924 -5478)"/></clipPath></defs><g transform="translate(-4075.578 -4750.999)"><g transform="translate(4075.578 4751)"><g transform="translate(768.609 234.617)"><path class="b" d="M5298.047,5251.614a205.847,205.847,0,0,1-164.34,115.421c-.351.038-.7.076-1.069.148a1.58,1.58,0,0,0-.384.022q-1.641-2.536-3.234-5.174c-1.472-2.371-2.862-4.827-4.217-7.268-.052-.066-.086-.166-.137-.231a206.022,206.022,0,0,1,160.348-304.56,1.309,1.309,0,0,1,.35-.039,206.828,206.828,0,0,1,32.95,122.422c-.221,4.587-.625,9.21-1.145,13.817l-.016.034a202.414,202.414,0,0,1-7.016,34.073A205.572,205.572,0,0,1,5298.047,5251.614Z" transform="translate(-5099.001 -5049.93)"/></g><g class="c" transform="translate(801.934 234.617)"><path d="M5307.181,5251.614a205.848,205.848,0,0,1-164.34,115.421l-1.381-.667,152.688-316.4a1.311,1.311,0,0,1,.35-.039,206.828,206.828,0,0,1,32.95,122.422c-.22,4.587-.624,9.21-1.144,13.817l-.016.034a202.511,202.511,0,0,1-7.016,34.073A205.677,205.677,0,0,1,5307.181,5251.614Z" transform="translate(-5141.46 -5049.93)"/></g><g transform="translate(797.836 368.65)"><path class="b" d="M5294.5,5378.128a162.006,162.006,0,0,1-155.487,28.662c-.37-.1-.723-.224-1.076-.353q-.579-3.831-.91-7.667c-.213-2.054-.357-4.076-.47-6.082-.09-1.705-.165-3.443-.24-5.183-.115-3.461-.113-6.907.04-10.32.085-3.447.337-6.9.708-10.333.16-1.707.354-3.4.6-5.111.212-1.64.439-3.234.684-4.86a162.145,162.145,0,0,1,4.889-21.146c.288-1.024.625-2.065.994-3.091.143-.554.32-1.092.5-1.63.418-1.209.836-2.42,1.27-3.665.276-.655.517-1.328.758-2,.371-1.026.775-2.036,1.163-3.01.646-1.6,1.327-3.181,2.008-4.763q1.142-2.626,2.385-5.2a161.893,161.893,0,0,1,42.729-54.464,164.231,164.231,0,0,1,17.156-12.4c1.939-1.266,3.913-2.431,5.921-3.58.979-.565,2.007-1.148,3.054-1.682,3.835-2.095,7.755-4.023,11.747-5.752.979-.483,2.011-.9,3.009-1.331,1.3-.537,2.545-1.056,3.859-1.542.931-.382,1.88-.713,2.8-1.061,1.065-.4,2.114-.767,3.2-1.116,1.848-.645,3.729-1.273,5.612-1.818,1.232-.4,2.481-.752,3.765-1.09,2.116-.6,4.3-1.164,6.485-1.646,1.351-.3,2.7-.607,4.035-.876,1.7-.342,3.353-.666,5.022-.941l.15-.052c1.519-.221,3.02-.495,4.574-.7a7.878,7.878,0,0,1,1.1-.132c1.435-.221,2.888-.392,4.375-.548,1.67-.189,3.373-.364,5.078-.456,1.471-.121,2.941-.241,4.413-.278q3.408-.225,6.822-.2c1.088-.016,2.208-.015,3.313.021.434-.041.87,0,1.288,0,1.523.029,3.03.091,4.57.17,1.673.059,3.4.186,5.073.33,1.558.128,3.149.273,4.724.452a3.958,3.958,0,0,1,.737.106c1.558.129,3.116.341,4.659.588,1.207.167,2.414.333,3.587.567l.017-.034q4.6.79,9.209,1.829c1.242.268,2.5.583,3.76.9,2,.507,3.979,1.049,5.978,1.639,1.108.286,2.217.655,3.309.973.1.049.218.065.32.113,1.193.369,2.4.787,3.579,1.188a.679.679,0,0,1,.252.08A162.021,162.021,0,0,1,5294.5,5378.128Z" transform="translate(-5136.239 -5220.702)"/></g><g class="d" transform="translate(792.605 353.646)"><path d="M5324.892,5204.983c-.221,4.587-.625,9.21-1.146,13.816l-.016.034c-1.174-.235-2.365-.435-3.588-.568-1.542-.247-3.1-.459-4.659-.587a3.909,3.909,0,0,0-.737-.106c-1.575-.179-3.149-.357-4.724-.453q-2.513-.215-5.073-.329c-1.54-.08-3.046-.142-4.57-.171-.417.006-.854-.039-1.288,0-1.1-.035-2.208-.069-3.312-.02q-3.413-.029-6.822.2c-1.471.038-2.925.125-4.412.278-1.672.108-3.394.233-5.079.456-1.437.138-2.89.309-4.375.547a7.878,7.878,0,0,0-1.1.132c-1.52.223-3.039.444-4.574.7l-.15.053c-1.7.258-3.354.582-5.022.94-1.368.254-2.685.573-4.035.877-2.185.481-4.369,1.048-6.484,1.646-1.25.352-2.5.7-3.765,1.089-1.882.545-3.764,1.174-5.612,1.818-1.048.366-2.13.716-3.195,1.116-.917.347-1.865.678-2.8,1.06-1.314.486-2.561,1.006-3.859,1.543-1,.431-2,.863-3.009,1.33-3.991,1.728-7.912,3.657-11.747,5.751-1.062.567-2.075,1.117-3.086,1.75-1.992,1.115-3.965,2.28-5.889,3.513a164.207,164.207,0,0,0-17.156,12.4,161.88,161.88,0,0,0-42.729,54.463q-1.244,2.577-2.386,5.2c-.681,1.583-1.361,3.166-2.008,4.763-.388.976-.792,1.985-1.163,3.01-.241.673-.482,1.346-.758,2-.434,1.244-.852,2.454-1.27,3.665-.176.537-.353,1.075-.5,1.629-.37,1.025-.707,2.067-.994,3.092a162,162,0,0,0-4.888,21.146c-.246,1.626-.473,3.218-.685,4.86-.245,1.71-.437,3.4-.6,5.111-.336,3.45-.572,6.866-.708,10.332-.119,3.43-.121,6.876-.04,10.321.075,1.739.15,3.478.241,5.183-.941-.289-1.848-.56-2.772-.882a9.351,9.351,0,0,1-.976-.3l-.1-.049c-.017-.049-.019-.133-.035-.183a162.174,162.174,0,0,1,57.135-148.343,160.236,160.236,0,0,1,39.458-24.107A162.363,162.363,0,0,1,5324.892,5204.983Z" transform="translate(-5129.574 -5201.585)"/></g><g class="c" transform="translate(799.861 377.501)"><path d="M5295.063,5380.566a162.05,162.05,0,0,1-155.478,28.657l-.766-.927,213.076-176.317a1.677,1.677,0,0,1,.263.079A162.11,162.11,0,0,1,5295.063,5380.566Z" transform="translate(-5138.818 -5231.979)"/></g><g transform="translate(16.715)"><path class="e" d="M4281.39,5316.887S4082.8,4927.71,4158,4815.856c70.03-104.161,278.746-87.021,461.373,81.748s269.134-118.666,366.627-59.333c68.87,41.914,65.082,193.272,56.922,278.533a230.417,230.417,0,0,1-36.563,103.952l-64.178,98.4Z" transform="translate(-4141 -4751)"/></g><g class="f" transform="translate(0 564.142)"><path class="e" d="M4147.789,5470.225s-221.784,75.92-137.8,97.74c78.21,20.32,311.306,16.976,515.265-15.946s300.572,23.149,409.452,11.574,55.152-65.934,55.152-65.934l-104.089-27.877Z" transform="translate(-3990.999 -5469.782)"/></g><g transform="translate(838.759 138.135)"><g transform="translate(13.818 0)"><rect class="b" width="74.182" height="2.182" rx="1.091" transform="translate(74.182 2.182) rotate(-180)"/></g><g transform="translate(45.818 13.818)"><rect class="b" width="23.273" height="2.182" rx="1.091" transform="translate(23.273 2.182) rotate(-180)"/></g><g transform="translate(54.545 39.273)"><rect class="b" width="23.273" height="2.182" rx="1.091" transform="translate(23.273 2.182) rotate(180)"/></g><g transform="translate(11.637 26.909)"><rect class="b" width="43.636" height="2.182" rx="1.091" transform="translate(43.636 2.182) rotate(180)"/></g><g transform="translate(0 26.909)"><rect class="b" width="6.545" height="2.182" rx="1.091" transform="translate(6.545 2.182) rotate(-180)"/></g></g><g transform="translate(8.616 308.45)"><g transform="translate(19.627 0)"><rect class="b" width="105.367" height="3.099" rx="1.55" transform="translate(105.367 3.099) rotate(-180)"/></g><g transform="translate(65.08 19.627)"><rect class="b" width="33.056" height="3.099" rx="1.55" transform="translate(33.056 3.099) rotate(180)"/></g><g transform="translate(77.476 55.782)"><rect class="b" width="33.056" height="3.099" rx="1.55" transform="translate(33.056 3.099) rotate(180)"/></g><g transform="translate(16.528 38.221)"><rect class="b" width="61.981" height="3.099" rx="1.55" transform="translate(61.981 3.099) rotate(-180)"/></g><g transform="translate(0 38.221)"><rect class="b" width="9.297" height="3.099" rx="1.55" transform="translate(9.297 3.099) rotate(180)"/></g></g><g transform="translate(173.323 193.261)"><rect class="g" width="587.091" height="377.416"/></g><g transform="translate(429.127 219.471)"><rect class="h" width="216.126" height="301.932" transform="translate(301.932 0) rotate(90)"/></g><g transform="translate(505.452 309.662)"><path class="i" d="M4763.708,5183.185a15.12,15.12,0,0,0,1.663,1.537A15.978,15.978,0,0,1,4763.708,5183.185Zm148.158-37.64a1.68,1.68,0,1,0,1.681,1.68A1.684,1.684,0,0,0,4911.866,5145.545Z" transform="translate(-4763.708 -5145.545)"/></g><g class="j" transform="translate(530.05 332.32)"><path class="h" d="M4827.592,5174.414c-.1.218-.2.429-.293.638-.8,1.748-1.579,3.377-2.234,5.132a35.751,35.751,0,0,1-2.99,6.181l-.009.008-13.865,10.709a44.725,44.725,0,0,1-12.579,1.62h-.572l3.511-2.621,25.144-18.761.008-.008Z" transform="translate(-4795.049 -5174.414)"/></g><g class="j" transform="translate(621.589 333.37)"><path class="h" d="M4940.343,5176.843l1.461-1.092a54.735,54.735,0,0,1-2.015,8.239c-.354.663-.714,1.3-1.084,1.906l-.008.009-13.865,10.708a44.741,44.741,0,0,1-12.581,1.62h-.571l2.434-1.815,1.076-.8,21.818-16.284,3.325-2.478Z" transform="translate(-4911.681 -5175.751)"/></g><g class="j" transform="translate(653.09 331.565)"><path class="h" d="M4952.857,5173.451c-.1.218-.2.429-.293.637-.168.361-.328.715-.488,1.067l-.185-.336-.076.042.261-.824Z" transform="translate(-4951.815 -5173.451)"/></g><g transform="translate(202.677 219.471)"><rect class="b" width="202.337" height="327.093"/></g><g transform="translate(218.672 236.46)"><rect class="k" width="74.675" height="66.881"/></g><g transform="translate(218.672 419.711)"><rect class="l" width="168.208" height="110.08"/></g><g transform="translate(227.645 429.623)"><path class="h" d="M4560.011,5388.644H4409.749v-90.255h150.262Zm-149.119-1.142h147.976v-87.969H4410.892Z" transform="translate(-4409.749 -5298.389)"/></g><g transform="translate(312.205 236.46)"><rect class="k" width="74.675" height="66.881"/></g><g transform="translate(218.672 322.427)"><rect class="k" width="74.675" height="66.881"/></g><g transform="translate(312.205 322.427)"><rect class="k" width="74.675" height="66.881"/></g><g transform="translate(218.902 394.55)"><ellipse class="m" cx="9.067" cy="9.96" rx="9.067" ry="9.96"/></g><g class="n" transform="translate(218.403 236.245)"><path d="M4472.408,5052l-74.434,67.1h74.434Z" transform="translate(-4397.975 -5052.003)"/></g><g class="n" transform="translate(311.708 236.245)"><path d="M4591.291,5052l-74.435,67.1h74.435Z" transform="translate(-4516.856 -5052.003)"/></g><g class="n" transform="translate(218.403 322.212)"><path d="M4472.408,5161.535l-74.434,67.1h74.434Z" transform="translate(-4397.975 -5161.535)"/></g><g class="n" transform="translate(312.757 322.212)"><path d="M4592.626,5161.535l-74.435,67.1h74.435Z" transform="translate(-4518.192 -5161.535)"/></g><g transform="translate(442.819 486.844)"><rect class="h" width="67.88" height="1.996" rx="0.998" transform="translate(67.88 1.996) rotate(-180)"/></g><g transform="translate(472.101 499.488)"><rect class="h" width="21.296" height="1.996" rx="0.998" transform="translate(21.296 1.996) rotate(180)"/></g><g transform="translate(480.087 522.78)"><rect class="h" width="21.296" height="1.996" rx="0.998" transform="translate(21.296 1.996) rotate(180)"/></g><g transform="translate(440.823 511.467)"><rect class="h" width="39.929" height="1.996" rx="0.998" transform="translate(39.929 1.996) rotate(-180)"/></g><g transform="translate(430.175 511.467)"><rect class="h" width="5.989" height="1.996" rx="0.998" transform="translate(5.989 1.996) rotate(-180)"/></g><g transform="translate(556.044 486.844)"><rect class="h" width="67.88" height="1.996" rx="0.998" transform="translate(67.88 1.996) rotate(-180)"/></g><g transform="translate(585.326 499.488)"><rect class="h" width="21.296" height="1.996" rx="0.998" transform="translate(21.296 1.996) rotate(180)"/></g><g transform="translate(593.312 522.78)"><rect class="h" width="21.296" height="1.996" rx="0.998" transform="translate(21.296 1.996) rotate(180)"/></g><g transform="translate(554.047 511.467)"><rect class="h" width="39.929" height="1.996" rx="0.998" transform="translate(39.929 1.996) rotate(-180)"/></g><g transform="translate(543.4 511.467)"><rect class="h" width="5.989" height="1.996" rx="0.998" transform="translate(5.989 1.996) rotate(-180)"/></g><g transform="translate(667.172 487.892)"><rect class="h" width="67.88" height="1.996" rx="0.998" transform="translate(67.88 1.996) rotate(-180)"/></g><g transform="translate(696.453 500.537)"><rect class="o" width="21.296" height="1.996" rx="0.998" transform="translate(21.296 1.996) rotate(-180)"/></g><g transform="translate(704.439 523.829)"><rect class="o" width="21.296" height="1.996" rx="0.998" transform="translate(21.296 1.996) rotate(-180)"/></g><g transform="translate(665.175 512.516)"><rect class="o" width="39.929" height="1.996" rx="0.998" transform="translate(39.929 1.996) rotate(-180)"/></g><g transform="translate(654.528 512.516)"><rect class="o" width="5.989" height="1.996" rx="0.998" transform="translate(5.989 1.996) rotate(180)"/></g><g transform="translate(146.065 97.859)"><rect class="b" width="631.123" height="95.402"/></g><g transform="translate(439.327 243.441)"><rect class="p" width="280.709" height="183.617"/><rect class="o" width="280.709" height="4.13" transform="translate(0 65.35)"/><rect class="o" width="280.709" height="4.13" transform="translate(0 133.199)"/><rect class="q" width="280.709" height="15.623" transform="translate(0 0.094)"/><rect class="q" width="280.709" height="22.087" transform="translate(0.377 69.587)"/><rect class="q" width="280.709" height="25.858" transform="translate(0.377 137.464)"/><g transform="translate(166.918 44.19)"><path class="r" d="M4952.664,5121.044l-.17.035.14-.1c-1.881-2.554-16.527-5.536-27.345-1.585l.06.164-.119-.128a3.68,3.68,0,0,1-2.405.7,2.056,2.056,0,0,0-.3.019h-.026a3.693,3.693,0,0,1-2.4-.7l-.12.127.061-.164c-10.819-3.951-25.463-.97-27.345,1.585l.14.1-.17-.036c-1.025,4.9-.438,6.582.688,9.126l.159-.071-.114.133c2.09,1.793,8.377,2.992,14.259,2.992a34.115,34.115,0,0,0,5.419-.4c2.734-.447,4.526-1.264,5.182-2.365l-.149-.09.159.07a28.273,28.273,0,0,0,2.11-6.207h0a1.9,1.9,0,0,1,2.007-1.625h0l.086-.007c.2,0,.364.014.483.025l0-.039a1.893,1.893,0,0,1,2,1.625l.17-.036v0l-.169.04a28.8,28.8,0,0,0,2.11,6.2l.16-.07-.149.089c.657,1.1,2.448,1.92,5.185,2.366a34.081,34.081,0,0,0,5.418.4c5.881,0,12.169-1.2,14.259-2.992l-.114-.133.159.069C4953.1,5127.626,4953.687,5125.948,4952.664,5121.044Zm-3.755,8.04c-.381,1.181-2.253,2.061-5.27,2.479l.024.171-.025-.171a30.425,30.425,0,0,1-13.559-.668l-.047.168.036-.169c-1.444-.311-2.433-1.549-2.938-3.681l-.029-.118h0c-.091-.43-.19-.855-.286-1.273-.448-1.935-.869-3.764-.125-4.926a3.309,3.309,0,0,1,2.263-1.3c10.721-2.239,20.4.246,20.694,1.647h0c.83,3.98.128,5.969-.73,7.816l.158.073Zm-30.682-1.979-.029.123c-.5,2.134-1.5,3.374-2.941,3.686l.038.169-.049-.167a30.461,30.461,0,0,1-13.558.665l-.025.172.023-.172c-3.015-.417-4.888-1.3-5.271-2.479l-.166.054.159-.073c-.858-1.85-1.56-3.838-.729-7.817.294-1.4,9.97-3.886,20.694-1.647a3.323,3.323,0,0,1,2.262,1.294c.744,1.164.342,2.905-.123,4.922-.1.417-.194.842-.284,1.271Z" transform="translate(-4892.13 -5117.475)"/></g><path class="s" d="M4955.706,5200.052c0-.179-.028-.355-.041-.533-.048-.694-.188-.842-.9-.9-.91-.071-1.824-.106-2.732-.2-1.3-.133-2.6-.333-3.909-.455q-.8-.074-1.606-.143c-.939-.081-1.882-.156-2.823-.232-.467-.038-.934-.074-1.4-.113a17.045,17.045,0,0,0-3.43.159c-.761.088-1.522.148-2.279.255-1.047.147-2.1.337-3.123.557-1.272.272-2.537.565-3.8.866a21.437,21.437,0,0,1-8.834,0c-1.265-.3-2.533-.593-3.8-.866-1.021-.22-2.077-.41-3.123-.557-.756-.107-1.519-.167-2.279-.255a17.055,17.055,0,0,0-3.431-.159c-.466.039-.934.075-1.4.113-.941.076-1.883.151-2.825.232-.535.046-1.069.094-1.605.143-1.306.123-2.6.322-3.909.455-.908.093-1.822.127-2.732.2-.706.057-.846.2-.9.9-.012.178-.035.354-.04.533-.021.757-.041,1.512-.05,2.268,0,.321.073.609.438.716a2.026,2.026,0,0,1,1.512,1.784c.18,1.089.391,2.171.579,3.258a23.028,23.028,0,0,0,1.372,4.972,6.36,6.36,0,0,0,2.684,3.357,14.887,14.887,0,0,0,2.8,1.2,14.457,14.457,0,0,0,5.038.619c4.794-.271,9.136-2.521,11.384-6.877a40.969,40.969,0,0,0,2.245-5.469,2.583,2.583,0,0,1,4.918,0,40.554,40.554,0,0,0,2.247,5.47c2.246,4.355,6.589,6.606,11.381,6.877a14.457,14.457,0,0,0,5.039-.619,14.923,14.923,0,0,0,2.8-1.2,6.371,6.371,0,0,0,2.685-3.357,23.135,23.135,0,0,0,1.37-4.972c.19-1.087.4-2.169.579-3.258a2.028,2.028,0,0,1,1.512-1.784c.366-.107.441-.395.438-.716C4955.747,5201.564,4955.727,5200.809,4955.706,5200.052Zm-35.459,8.294a14.109,14.109,0,0,1-1.59,3.825,11.08,11.08,0,0,1-8.5,5,17.54,17.54,0,0,1-3.6,0,7.646,7.646,0,0,1-2.384-.593c-.309-.144-.627-.258-.938-.395-.264-.116-.514-.279-.771-.409a5.444,5.444,0,0,1-2.844-3.669,22.683,22.683,0,0,1-.644-8.587,9.054,9.054,0,0,1,.439-1.7,3.149,3.149,0,0,1,1.992-1.841,15.339,15.339,0,0,1,4.17-1.045,29.21,29.21,0,0,1,6.54-.128,18.409,18.409,0,0,1,6.078,1.516,5.493,5.493,0,0,1,1.109.695,3.449,3.449,0,0,1,.43.374,4.785,4.785,0,0,1,.383.589c.123.189.26.367.372.563a4.59,4.59,0,0,1,.376,1.337A14.5,14.5,0,0,1,4920.247,5208.346Zm30.627,3.757a5.447,5.447,0,0,1-2.842,3.669c-.259.13-.507.293-.772.409-.31.136-.63.25-.938.395a7.639,7.639,0,0,1-2.384.593,17.54,17.54,0,0,1-3.6,0,11.078,11.078,0,0,1-8.5-5,14.076,14.076,0,0,1-1.589-3.825,14.357,14.357,0,0,1-.615-4.474,4.586,4.586,0,0,1,.374-1.337c.113-.2.25-.374.373-.562a4.778,4.778,0,0,1,.382-.589,3.53,3.53,0,0,1,.431-.374,5.493,5.493,0,0,1,1.109-.695,18.4,18.4,0,0,1,6.078-1.516,29.2,29.2,0,0,1,6.539.128,15.337,15.337,0,0,1,4.171,1.045,3.154,3.154,0,0,1,1.992,1.841,9.051,9.051,0,0,1,.438,1.7A22.644,22.644,0,0,1,4950.874,5212.1Z" transform="translate(-4725.772 -5090.489)"/><path class="t" d="M4792.564,5113.158c-4.018-.309-5.436-1.3-13.5-1.262-6.271.039-10.1,1.225-16.371,1.225h-.025c-6.273,0-10.1-1.186-16.372-1.225-8.062-.039-9.479.953-13.5,1.262-.36.026-.7.322-.644.94,0,1.044.076,1.971.076,2.9,0,.837.7.735,1.108,1.713,1.287,3.117.76,8.308,3.825,11.026a7.72,7.72,0,0,0,3.98,1.881c7.381.683,13.731,1.159,16.564-6.363a39.679,39.679,0,0,0,2.036-5.152c.85-1.572.889-1.263,2.937-1.366,2.048.1,2.087-.219,2.937,1.366a39.82,39.82,0,0,0,2.036,5.152c2.821,7.522,9.184,7.045,16.564,6.363a7.731,7.731,0,0,0,3.981-1.881c3.064-2.718,2.549-7.909,3.825-11.026.4-.978,1.107-.875,1.107-1.713,0-.915.077-1.854.077-2.9C4793.26,5113.479,4792.925,5113.184,4792.564,5113.158Zm-34.712,9.132c-.785,2.77-2.022,5.552-4.444,7.085a12.819,12.819,0,0,1-6.608,1.713c-7.728.129-10.844-2.4-10.883-8.913-.013-3.079-.568-5.913,1.2-7.368,1.97-1.623,6.439-1.687,9.763-1.687,3.438,0,8.849.552,10.819,2.5C4759.346,5117.241,4758.573,5119.727,4757.852,5122.29Zm31.583-.115c-.039,6.517-3.157,9.042-10.884,8.913a12.813,12.813,0,0,1-6.607-1.713c-2.422-1.533-3.658-4.315-4.444-7.085-.721-2.562-1.493-5.048.155-6.671,1.971-1.946,7.38-2.5,10.82-2.5,3.322,0,7.793.064,9.763,1.687C4790,5116.262,4789.447,5119.1,4789.435,5122.175Z" transform="translate(-4690.794 -5072.083)"/><rect class="u" width="58.18" height="5.387" transform="translate(43.097 59.89)"/><rect class="u" width="58.18" height="5.387" transform="translate(168.615 59.89)"/><path class="v" d="M4794.624,5199.641c-4.018-.308-5.436-1.3-13.5-1.262-6.272.039-10.1,1.224-16.37,1.224h-.025c-6.275,0-10.1-1.185-16.373-1.224-8.062-.039-9.479.954-13.5,1.262-.358.026-.695.322-.644.94,0,1.044.078,1.971.078,2.9,0,.837.7.733,1.107,1.713,1.288,3.117.76,8.308,3.827,11.025a7.723,7.723,0,0,0,3.979,1.881c7.38.682,13.73,1.159,16.563-6.364a39.552,39.552,0,0,0,2.036-5.153c.85-1.57.889-1.261,2.937-1.365,2.047.1,2.086-.219,2.936,1.365a39.7,39.7,0,0,0,2.036,5.153c2.82,7.523,9.184,7.046,16.564,6.364a7.732,7.732,0,0,0,3.98-1.881c3.065-2.718,2.55-7.909,3.826-11.025.4-.979,1.106-.876,1.106-1.713,0-.914.078-1.855.078-2.9C4795.318,5199.963,4794.984,5199.667,4794.624,5199.641Zm-34.712,9.133c-.786,2.769-2.022,5.551-4.444,7.084a12.818,12.818,0,0,1-6.607,1.713c-7.729.128-10.845-2.4-10.884-8.914-.013-3.078-.567-5.913,1.2-7.368,1.972-1.623,6.442-1.687,9.764-1.687,3.438,0,8.848.554,10.819,2.5C4761.4,5203.725,4760.632,5206.21,4759.911,5208.773Zm31.583-.116c-.039,6.517-3.156,9.042-10.884,8.914a12.818,12.818,0,0,1-6.608-1.713c-2.422-1.533-3.659-4.315-4.444-7.084-.721-2.563-1.495-5.049.155-6.672,1.971-1.945,7.38-2.5,10.819-2.5,3.323,0,7.793.064,9.764,1.688C4792.06,5202.745,4791.507,5205.58,4791.494,5208.658Z" transform="translate(-4691.235 -5090.69)"/><rect class="u" width="58.18" height="5.387" transform="translate(44.713 127.767)"/><rect class="u" width="58.18" height="5.387" transform="translate(170.231 127.767)"/></g><g class="f" transform="translate(439.18 244.148)"><rect class="w" width="282.396" height="182.201"/></g><g class="x" transform="translate(438.163 243.842)"><path class="h" d="M4677.974,5207.05l218.264-145.367h27.617l-245.881,165.054Z" transform="translate(-4677.974 -5061.683)"/></g><g class="x" transform="translate(555.132 326.675)"><path class="h" d="M4827.006,5266.9l166.093.307.351-99.981Z" transform="translate(-4827.006 -5167.222)"/></g><g transform="translate(133.247 435.976)"><path class="o" d="M4289.476,5349.2a49.922,49.922,0,0,0,23.728,42.532c.073.045.146.091.218.144a.445.445,0,0,1,.082.046q.625-.38,1.252-.789c.572-.363,1.133-.753,1.688-1.143.018-.008.036-.027.054-.037a49.964,49.964,0,0,0-2.921-83.421.328.328,0,0,0-.073-.046,50.161,50.161,0,0,0-20.1,23.266c-.435,1.025-.834,2.077-1.207,3.138v.01a49.172,49.172,0,0,0-2.059,8.181A49.9,49.9,0,0,0,4289.476,5349.2Z" transform="translate(-4289.476 -5306.483)"/></g><g class="c" transform="translate(133.247 435.976)"><path d="M4289.476,5349.2a49.922,49.922,0,0,0,23.728,42.532h.373v-85.2a.328.328,0,0,0-.073-.046,50.161,50.161,0,0,0-20.1,23.266c-.435,1.025-.834,2.077-1.207,3.138v.01a49.172,49.172,0,0,0-2.059,8.181A49.9,49.9,0,0,0,4289.476,5349.2Z" transform="translate(-4289.476 -5306.483)"/></g><g transform="translate(122.719 461.065)"><path class="o" d="M4279.651,5376.9a39.286,39.286,0,0,0,30.94,22.647c.09.019.181.027.271.038.355-.518.689-1.043,1.007-1.579.263-.427.508-.854.744-1.279.2-.362.4-.734.6-1.106.39-.743.752-1.5,1.079-2.259.345-.762.654-1.542.935-2.331.146-.39.281-.78.409-1.179.127-.381.245-.752.362-1.135a39.092,39.092,0,0,0,1.161-5.133c.045-.255.082-.518.109-.78.028-.136.046-.272.063-.409.037-.308.073-.616.11-.933.008-.173.027-.345.044-.518.027-.263.045-.526.063-.78.028-.418.045-.834.063-1.251q.027-.694.028-1.389a39.278,39.278,0,0,0-3.592-16.4,40.042,40.042,0,0,0-2.439-4.516c-.291-.48-.6-.943-.917-1.407-.153-.227-.317-.462-.49-.688q-.925-1.293-1.959-2.5c-.163-.208-.344-.407-.517-.607-.227-.254-.445-.5-.68-.743-.164-.181-.335-.354-.5-.525-.19-.2-.381-.391-.581-.582-.336-.335-.681-.67-1.033-.987-.228-.219-.464-.428-.708-.636-.4-.353-.816-.708-1.242-1.044-.263-.208-.526-.416-.79-.616-.335-.253-.661-.5-1-.735l-.028-.025c-.307-.209-.607-.428-.924-.635a1.734,1.734,0,0,0-.227-.146c-.29-.2-.589-.39-.9-.58-.346-.218-.7-.436-1.063-.635-.308-.182-.616-.363-.933-.526-.48-.272-.972-.526-1.47-.762-.236-.118-.481-.236-.726-.345-.091-.056-.19-.092-.281-.138-.336-.153-.671-.3-1.016-.443-.372-.163-.762-.317-1.143-.462-.354-.137-.716-.273-1.08-.4a.9.9,0,0,0-.172-.055c-.354-.137-.717-.254-1.08-.362-.281-.091-.562-.182-.843-.254v-.01q-1.089-.312-2.2-.571c-.3-.072-.607-.137-.916-.2-.489-.1-.979-.191-1.478-.272-.273-.055-.554-.09-.826-.136-.027,0-.055-.01-.082-.01-.3-.045-.609-.082-.907-.118a.209.209,0,0,0-.063-.008A39.292,39.292,0,0,0,4279.651,5376.9Z" transform="translate(-4276.062 -5338.45)"/></g><g class="d" transform="translate(135.969 459.242)"><path d="M4294.151,5336.127c-.437,1.025-.835,2.077-1.207,3.138v.01c.28.072.563.153.843.253.364.108.727.227,1.08.363a1.024,1.024,0,0,1,.173.054c.363.127.726.254,1.077.4.383.146.763.3,1.145.462.344.146.68.291,1.016.445.091.045.19.082.282.137.244.108.49.218.726.345q.749.353,1.469.762c.318.163.625.335.934.526.354.2.717.408,1.062.635.3.181.6.372.9.581a1.747,1.747,0,0,1,.228.145c.308.208.616.417.925.635l.026.026c.345.237.672.482,1,.735.272.2.527.408.79.616.426.336.844.691,1.242,1.043.237.208.472.417.708.636.353.317.7.653,1.034.988.191.191.39.381.581.581.163.171.334.345.5.526.236.245.454.489.68.743.173.2.345.4.518.608.688.8,1.342,1.632,1.959,2.494.172.236.335.462.49.708.316.454.625.917.916,1.389a39.428,39.428,0,0,1,6.032,20.917c0,.462-.008.925-.027,1.388-.018.417-.036.833-.063,1.251-.018.254-.036.517-.063.78-.019.172-.037.344-.045.517-.037.317-.073.625-.108.933-.018.137-.037.273-.064.409-.028.263-.064.526-.109.781a39.143,39.143,0,0,1-1.162,5.134c-.117.381-.235.753-.362,1.133-.127.4-.263.79-.409,1.179-.29.789-.6,1.561-.935,2.332s-.7,1.516-1.079,2.259c-.2.372-.4.744-.6,1.106.237.036.464.073.7.1a1.937,1.937,0,0,0,.246.037h.027c.009-.008.018-.027.027-.037a39.325,39.325,0,0,0,3.156-38.422,38.874,38.874,0,0,0-6.077-9.426A39.377,39.377,0,0,0,4294.151,5336.127Z" transform="translate(-4292.944 -5336.127)"/></g><g class="c" transform="translate(122.719 461.063)"><path d="M4279.649,5376.9a39.3,39.3,0,0,0,30.938,22.647l.265-.122-27.955-60.969a.614.614,0,0,0-.065-.011A39.315,39.315,0,0,0,4279.649,5376.9Z" transform="translate(-4276.061 -5338.446)"/></g><path class="y" d="M4341.894,5418.993v15.149a35.871,35.871,0,0,1-71.742,0v-15.149a.251.251,0,0,0,.076.008h71.583A.3.3,0,0,0,4341.894,5418.993Z" transform="translate(-4152.072 -4894.713)"/><g transform="translate(118.08 524.28)"><path d="M4341.894,5418.993v1.527a.343.343,0,0,1-.083.007h-71.583a.286.286,0,0,1-.076-.007v-1.527a.251.251,0,0,0,.076.008h71.583A.3.3,0,0,0,4341.894,5418.993Z" transform="translate(-4270.151 -5418.993)"/></g><g transform="translate(115.607 519.448)"><path class="y" d="M4343.688,5415.257a2.3,2.3,0,0,1-.129.763,2.537,2.537,0,0,1-2.344,1.649.32.32,0,0,1-.083.007h-71.583a.269.269,0,0,1-.076-.007,2.526,2.526,0,0,1-2.344-1.649,2.316,2.316,0,0,1-.129-.763,2.489,2.489,0,0,1,2.549-2.42h71.583a2.654,2.654,0,0,1,1.809.71A2.335,2.335,0,0,1,4343.688,5415.257Z" transform="translate(-4267 -5412.837)"/></g><path class="z" d="M4937.025,4876,4306,4970.968h631.025Z" transform="translate(-4159.784 -4777.893)"/><path class="aa" d="M4398,5395.88,4566.745,5286v109.88Z" transform="translate(-4179.577 -4866.101)"/><text class="ab" transform="translate(296.512 467.232)"><tspan x="-28.639" y="0">OPTICAL</tspan><tspan x="-25.662" y="16">WORLD</tspan></text><text class="ac" transform="translate(294.943 467.232)"><tspan x="-28.639" y="0">OPTICAL</tspan><tspan x="-25.662" y="16">WORLD</tspan></text></g><g transform="translate(4461.481 4867.18)"><g transform="translate(3.858 1.928)"><g transform="translate(0 0.08)"><path d="M4619.963,4923.87c-2.75-1.5-3.952-3.656-3.6-6.4a5.944,5.944,0,0,1,5.664-5.121c1.124-.031,2.25-.032,3.374,0a1.122,1.122,0,0,0,.957-.483A28.768,28.768,0,0,1,4644,4902c11.269-1.7,20.737,1.854,28.136,10.542a28.27,28.27,0,0,1,6.692,16.474,29.966,29.966,0,0,1-57.407,14.3,29.575,29.575,0,0,1-1.517-19.082A3.529,3.529,0,0,0,4619.963,4923.87Zm29.082-14.427a22.064,22.064,0,1,0,22.042,22.234A22.035,22.035,0,0,0,4649.045,4909.443Z" transform="translate(-4616.303 -4901.585)"/></g><g transform="translate(91.863)"><path d="M4733.347,4930.993a29.965,29.965,0,0,1,52.6-19.171,1.321,1.321,0,0,0,1.153.508c1.012-.031,2.026-.025,3.039,0a5.959,5.959,0,0,1,5.807,5.717,5.857,5.857,0,0,1-5.171,6.142c-2.031.2-4.088.143-6.133.157-.184,0-.458-.3-.541-.514a22.127,22.127,0,1,0-.618,16.68c.386-.883.672-1.812,1.035-2.706a3.884,3.884,0,0,1,4.47-2.285,3.769,3.769,0,0,1,3.029,4.176,17.189,17.189,0,0,1-1.377,4.07,29.5,29.5,0,0,1-19.154,16.507,29.961,29.961,0,0,1-38.136-29.276Z" transform="translate(-4733.347 -4901.484)"/></g><g transform="translate(72.78 14.864)"><path d="M4709.038,4943c0-5.83-.008-11.659.009-17.49a8.265,8.265,0,0,1,.226-1.867,4.386,4.386,0,0,1,8.438-.066,6.193,6.193,0,0,1,.208,1.53q.018,17.556,0,35.114c0,2.007-.669,3.687-2.6,4.587a4.4,4.4,0,0,1-6.278-4.115C4709.024,4954.792,4709.038,4948.9,4709.038,4943Z" transform="translate(-4709.033 -4920.422)"/></g><g transform="translate(72.692 0.16)"><path d="M4713.443,4910.735a4.522,4.522,0,0,1-4.521-4.492,4.537,4.537,0,1,1,9.073.03A4.519,4.519,0,0,1,4713.443,4910.735Z" transform="translate(-4708.922 -4901.688)"/></g></g><g transform="translate(0 0.079)"><path class="ad" d="M4615.047,4921.414c-2.75-1.5-3.952-3.656-3.6-6.4a5.939,5.939,0,0,1,5.662-5.121c1.125-.032,2.251-.034,3.375,0a1.124,1.124,0,0,0,.958-.482,28.77,28.77,0,0,1,17.644-9.875c11.27-1.7,20.737,1.854,28.136,10.542a28.266,28.266,0,0,1,6.691,16.474,29.965,29.965,0,0,1-57.4,14.3,29.568,29.568,0,0,1-1.518-19.082C4615.02,4921.667,4615.026,4921.556,4615.047,4921.414Zm29.083-14.428a22.065,22.065,0,1,0,22.042,22.234A22.033,22.033,0,0,0,4644.13,4906.985Z" transform="translate(-4611.388 -4899.128)"/></g><g transform="translate(91.862)"><path class="ad" d="M4728.432,4928.536a29.966,29.966,0,0,1,52.6-19.17,1.321,1.321,0,0,0,1.153.507c1.011-.031,2.025-.024,3.038,0a5.957,5.957,0,0,1,5.807,5.716,5.856,5.856,0,0,1-5.17,6.142c-2.033.2-4.088.143-6.134.158-.184,0-.456-.3-.54-.515a22.138,22.138,0,0,0-41.173-.886,22.1,22.1,0,0,0,40.554,17.565c.386-.882.672-1.81,1.035-2.706a3.883,3.883,0,0,1,4.47-2.285,3.767,3.767,0,0,1,3.029,4.176,17.169,17.169,0,0,1-1.377,4.069,29.492,29.492,0,0,1-19.154,16.507,29.961,29.961,0,0,1-38.136-29.276Z" transform="translate(-4728.432 -4899.027)"/></g><g transform="translate(72.779 14.862)"><path class="ad" d="M4704.122,4940.541c0-5.831-.006-11.66.01-17.49a8.242,8.242,0,0,1,.227-1.867,4.386,4.386,0,0,1,8.438-.065,6.3,6.3,0,0,1,.207,1.53q.018,17.555,0,35.114a4.586,4.586,0,0,1-2.6,4.587,4.4,4.4,0,0,1-6.279-4.116C4704.107,4952.335,4704.122,4946.438,4704.122,4940.541Z" transform="translate(-4704.117 -4917.964)"/></g><g transform="translate(72.692 0.159)"><path class="ad" d="M4708.527,4908.277a4.522,4.522,0,0,1-4.52-4.492,4.537,4.537,0,1,1,9.073.032A4.519,4.519,0,0,1,4708.527,4908.277Z" transform="translate(-4704.007 -4899.23)"/></g><g transform="translate(365.125 377.843)"><rect class="b" width="114.799" height="75.844"/></g><g class="d" transform="translate(365.696 377.843)"><path d="M5191.554,5380.443v75.844H5077.327l113.367-75.844Z" transform="translate(-5077.327 -5380.443)"/></g><g transform="translate(385.92 402.641)"><g transform="translate(1.644 0.822)"><g transform="translate(0 0.034)"><path d="M5106.749,5422.624a2.568,2.568,0,0,1-1.534-2.726,2.531,2.531,0,0,1,2.413-2.182c.479-.014.959-.014,1.438,0a.482.482,0,0,0,.409-.208,12.257,12.257,0,0,1,7.518-4.207,12.457,12.457,0,0,1,11.989,4.493,12.043,12.043,0,0,1,2.851,7.019,12.768,12.768,0,0,1-24.46,6.094,12.6,12.6,0,0,1-.647-8.131C5106.737,5422.733,5106.739,5422.685,5106.749,5422.624Zm12.392-6.147a9.4,9.4,0,1,0,9.394,9.474A9.387,9.387,0,0,0,5119.14,5416.477Z" transform="translate(-5105.189 -5413.129)"/></g><g transform="translate(39.143)"><path d="M5155.063,5425.66a12.768,12.768,0,0,1,22.413-8.169.564.564,0,0,0,.491.216c.431-.013.863-.01,1.295,0a2.54,2.54,0,0,1,2.474,2.437,2.5,2.5,0,0,1-2.2,2.616c-.865.084-1.742.061-2.613.067-.078,0-.195-.127-.23-.219a9.429,9.429,0,1,0-.264,7.107c.166-.376.288-.771.442-1.153a1.654,1.654,0,0,1,1.9-.974,1.605,1.605,0,0,1,1.292,1.78,7.28,7.28,0,0,1-.586,1.733,12.564,12.564,0,0,1-8.162,7.034,12.77,12.77,0,0,1-14.323-5.536A12.9,12.9,0,0,1,5155.063,5425.66Z" transform="translate(-5155.063 -5413.085)"/></g><g transform="translate(31.011 6.333)"><path d="M5144.7,5430.773c0-2.483,0-4.968,0-7.452a3.573,3.573,0,0,1,.1-.8,1.869,1.869,0,0,1,3.6-.028,2.626,2.626,0,0,1,.088.651q.009,7.48,0,14.963a1.954,1.954,0,0,1-1.107,1.953,1.875,1.875,0,0,1-2.676-1.753C5144.7,5435.8,5144.7,5433.287,5144.7,5430.773Z" transform="translate(-5144.702 -5421.154)"/></g><g transform="translate(30.974 0.068)"><path d="M5146.581,5417.027a1.928,1.928,0,0,1-1.927-1.915,1.933,1.933,0,1,1,3.867.014A1.928,1.928,0,0,1,5146.581,5417.027Z" transform="translate(-5144.654 -5413.172)"/></g></g><g transform="translate(0 0.034)"><path class="ad" d="M5104.653,5421.576a2.57,2.57,0,0,1-1.533-2.726,2.532,2.532,0,0,1,2.413-2.182c.479-.014.959-.014,1.438,0a.476.476,0,0,0,.407-.206,12.259,12.259,0,0,1,7.519-4.207,12.455,12.455,0,0,1,11.989,4.492,12.045,12.045,0,0,1,2.852,7.02,12.769,12.769,0,0,1-24.461,6.093,12.593,12.593,0,0,1-.646-8.13C5104.642,5421.686,5104.646,5421.638,5104.653,5421.576Zm12.394-6.146a9.4,9.4,0,1,0,9.392,9.474A9.387,9.387,0,0,0,5117.047,5415.43Z" transform="translate(-5103.095 -5412.081)"/></g><g transform="translate(39.142)"><path class="ad" d="M5152.967,5424.611a12.77,12.77,0,0,1,22.413-8.168.561.561,0,0,0,.49.216c.432-.013.864-.009,1.295,0a2.537,2.537,0,0,1,2.474,2.436,2.492,2.492,0,0,1-2.2,2.616c-.867.085-1.742.062-2.615.067-.077,0-.195-.126-.229-.219a9.433,9.433,0,0,0-17.544-.378,9.417,9.417,0,0,0,17.28,7.485c.165-.377.286-.771.441-1.153a1.657,1.657,0,0,1,1.9-.974,1.6,1.6,0,0,1,1.29,1.78,7.3,7.3,0,0,1-.586,1.734,12.572,12.572,0,0,1-8.162,7.034,12.77,12.77,0,0,1-14.323-5.537A12.9,12.9,0,0,1,5152.967,5424.611Z" transform="translate(-5152.967 -5412.039)"/></g><g transform="translate(31.011 6.333)"><path class="ad" d="M5142.609,5429.728c0-2.484,0-4.97,0-7.453a3.574,3.574,0,0,1,.1-.8,1.869,1.869,0,0,1,3.595-.028,2.631,2.631,0,0,1,.088.652q.009,7.48,0,14.962a1.954,1.954,0,0,1-1.108,1.954,1.876,1.876,0,0,1-2.677-1.752C5142.6,5434.752,5142.609,5432.24,5142.609,5429.728Z" transform="translate(-5142.607 -5420.107)"/></g><g transform="translate(30.975 0.068)"><path class="ad" d="M5144.486,5415.98a1.926,1.926,0,0,1-1.925-1.915,1.933,1.933,0,1,1,3.865.013A1.927,1.927,0,0,1,5144.486,5415.98Z" transform="translate(-5142.561 -5412.125)"/></g></g><g transform="translate(245.644 377.843)"><rect class="b" width="114.799" height="75.844"/></g><g class="d" transform="translate(246.215 377.843)"><path d="M5039.322,5380.443v75.844H4925.095l113.367-75.844Z" transform="translate(-4925.095 -5380.443)"/></g><g transform="translate(266.439 402.641)"><g transform="translate(1.644 0.822)"><g transform="translate(0 0.034)"><path d="M4954.516,5422.624a2.569,2.569,0,0,1-1.534-2.726,2.531,2.531,0,0,1,2.413-2.182c.479-.014.96-.014,1.438,0a.479.479,0,0,0,.407-.208,12.261,12.261,0,0,1,7.519-4.207,12.457,12.457,0,0,1,11.989,4.493,12.043,12.043,0,0,1,2.852,7.019,12.769,12.769,0,0,1-24.462,6.094,12.6,12.6,0,0,1-.646-8.131A1.508,1.508,0,0,0,4954.516,5422.624Zm12.392-6.147a9.4,9.4,0,1,0,9.393,9.474A9.386,9.386,0,0,0,4966.907,5416.477Z" transform="translate(-4952.956 -5413.129)"/></g><g transform="translate(39.143)"><path d="M5002.829,5425.66a12.768,12.768,0,0,1,22.413-8.169.564.564,0,0,0,.491.216c.432-.013.863-.01,1.3,0a2.54,2.54,0,0,1,2.474,2.437,2.5,2.5,0,0,1-2.2,2.616c-.865.084-1.742.061-2.613.067-.078,0-.194-.127-.23-.219a9.429,9.429,0,1,0-.265,7.107c.166-.376.287-.771.443-1.153a1.655,1.655,0,0,1,1.9-.974,1.606,1.606,0,0,1,1.291,1.78,7.324,7.324,0,0,1-.586,1.733,12.566,12.566,0,0,1-8.162,7.034,12.77,12.77,0,0,1-14.323-5.536A12.9,12.9,0,0,1,5002.829,5425.66Z" transform="translate(-5002.829 -5413.085)"/></g><g transform="translate(31.012 6.333)"><path d="M4992.472,5430.773c0-2.483,0-4.968,0-7.452a3.517,3.517,0,0,1,.1-.8,1.869,1.869,0,0,1,3.6-.028,2.626,2.626,0,0,1,.088.651q.007,7.48,0,14.963a1.95,1.95,0,0,1-1.108,1.953,1.875,1.875,0,0,1-2.675-1.753C4992.465,5435.8,4992.472,5433.287,4992.472,5430.773Z" transform="translate(-4992.469 -5421.154)"/></g><g transform="translate(30.975 0.068)"><path d="M4994.349,5417.027a1.927,1.927,0,0,1-1.926-1.915,1.933,1.933,0,1,1,1.926,1.915Z" transform="translate(-4992.422 -5413.172)"/></g></g><g transform="translate(0 0.034)"><path class="ad" d="M4952.421,5421.576a2.569,2.569,0,0,1-1.534-2.726,2.531,2.531,0,0,1,2.413-2.182c.479-.014.959-.014,1.438,0a.473.473,0,0,0,.407-.206,12.261,12.261,0,0,1,7.52-4.207,12.452,12.452,0,0,1,11.989,4.492,12.041,12.041,0,0,1,2.852,7.02,12.769,12.769,0,0,1-24.462,6.093,12.6,12.6,0,0,1-.645-8.13C4952.409,5421.686,4952.412,5421.638,4952.421,5421.576Zm12.392-6.146a9.4,9.4,0,1,0,9.392,9.474A9.388,9.388,0,0,0,4964.813,5415.43Z" transform="translate(-4950.862 -5412.081)"/></g><g transform="translate(39.142)"><path class="ad" d="M5000.734,5424.611a12.77,12.77,0,0,1,22.414-8.168.557.557,0,0,0,.49.216c.431-.013.864-.009,1.294,0a2.538,2.538,0,0,1,2.474,2.436,2.492,2.492,0,0,1-2.2,2.616c-.866.085-1.742.062-2.614.067-.078,0-.195-.126-.231-.219a9.429,9.429,0,1,0-.264,7.107c.165-.377.287-.771.442-1.153a1.656,1.656,0,0,1,1.9-.974,1.6,1.6,0,0,1,1.29,1.78,7.254,7.254,0,0,1-.586,1.734,12.57,12.57,0,0,1-8.162,7.034,12.767,12.767,0,0,1-16.25-12.476Z" transform="translate(-5000.734 -5412.039)"/></g><g transform="translate(31.011 6.333)"><path class="ad" d="M4990.376,5429.728c0-2.484,0-4.97,0-7.453a3.464,3.464,0,0,1,.1-.8,1.869,1.869,0,0,1,3.6-.028,2.7,2.7,0,0,1,.088.652q.007,7.48,0,14.962a1.952,1.952,0,0,1-1.108,1.954,1.874,1.874,0,0,1-2.675-1.752C4990.37,5434.752,4990.376,5432.24,4990.376,5429.728Z" transform="translate(-4990.375 -5420.107)"/></g><g transform="translate(30.975 0.068)"><path class="ad" d="M4992.253,5415.98a1.928,1.928,0,0,1-1.926-1.915,1.933,1.933,0,1,1,3.865.013A1.926,1.926,0,0,1,4992.253,5415.98Z" transform="translate(-4990.327 -5412.125)"/></g></g><g transform="translate(303.09 297.018)"><rect class="b" width="114.799" height="75.844"/></g><g class="d" transform="translate(303.661 297.018)"><path d="M5112.515,5277.462v75.845H4998.287l113.367-75.845Z" transform="translate(-4998.287 -5277.462)"/></g><g transform="translate(323.885 321.815)"><g transform="translate(1.644 0.822)"><g transform="translate(0 0.034)"><path d="M5027.709,5319.644a2.567,2.567,0,0,1-1.534-2.727,2.531,2.531,0,0,1,2.413-2.182c.479-.013.959-.014,1.438,0a.476.476,0,0,0,.408-.207,12.261,12.261,0,0,1,7.519-4.207,12.451,12.451,0,0,1,11.988,4.491,12.044,12.044,0,0,1,2.852,7.021,12.769,12.769,0,0,1-24.461,6.092,12.6,12.6,0,0,1-.646-8.13C5027.7,5319.752,5027.7,5319.7,5027.709,5319.644Zm12.392-6.147a9.4,9.4,0,1,0,9.392,9.474A9.387,9.387,0,0,0,5040.1,5313.5Z" transform="translate(-5026.15 -5310.147)"/></g><g transform="translate(39.143)"><path d="M5076.023,5322.679a12.769,12.769,0,0,1,22.413-8.169.561.561,0,0,0,.49.216c.431-.012.864-.01,1.295,0a2.54,2.54,0,0,1,2.475,2.437,2.494,2.494,0,0,1-2.2,2.616c-.866.084-1.742.061-2.614.068-.078,0-.194-.128-.23-.221a9.433,9.433,0,0,0-17.543-.378,9.417,9.417,0,0,0,17.28,7.485c.165-.376.287-.771.441-1.152a1.655,1.655,0,0,1,1.9-.974,1.606,1.606,0,0,1,1.291,1.779,7.257,7.257,0,0,1-.587,1.735,12.571,12.571,0,0,1-8.162,7.034,12.767,12.767,0,0,1-16.25-12.475Z" transform="translate(-5076.023 -5310.104)"/></g><g transform="translate(31.011 6.333)"><path d="M5065.665,5327.794c0-2.485,0-4.969,0-7.453a3.482,3.482,0,0,1,.1-.8,1.87,1.87,0,0,1,3.6-.029,2.676,2.676,0,0,1,.087.652q.009,7.482,0,14.962a1.954,1.954,0,0,1-1.108,1.954,1.875,1.875,0,0,1-2.675-1.753C5065.659,5332.819,5065.665,5330.306,5065.665,5327.794Z" transform="translate(-5065.663 -5318.173)"/></g><g transform="translate(30.974 0.068)"><path d="M5067.542,5314.045a1.926,1.926,0,0,1-1.926-1.914,1.933,1.933,0,1,1,3.867.013A1.926,1.926,0,0,1,5067.542,5314.045Z" transform="translate(-5065.615 -5310.191)"/></g></g><g transform="translate(0 0.034)"><path class="ad" d="M5025.614,5318.6a2.568,2.568,0,0,1-1.533-2.726,2.534,2.534,0,0,1,2.412-2.184q.72-.019,1.438,0a.478.478,0,0,0,.408-.206,12.257,12.257,0,0,1,7.518-4.207,12.453,12.453,0,0,1,11.989,4.491,12.041,12.041,0,0,1,2.852,7.019,12.769,12.769,0,0,1-24.461,6.094,12.6,12.6,0,0,1-.646-8.13C5025.6,5318.7,5025.605,5318.656,5025.614,5318.6Zm12.393-6.147a9.4,9.4,0,1,0,9.392,9.474A9.389,9.389,0,0,0,5038.007,5312.448Z" transform="translate(-5024.055 -5309.1)"/></g><g transform="translate(39.143)"><path class="ad" d="M5073.928,5321.63a12.769,12.769,0,0,1,22.413-8.169.561.561,0,0,0,.491.218c.432-.014.863-.012,1.295,0a2.537,2.537,0,0,1,2.474,2.436,2.5,2.5,0,0,1-2.2,2.617c-.866.084-1.742.062-2.613.066-.079,0-.2-.126-.23-.219a9.433,9.433,0,0,0-17.544-.377,9.417,9.417,0,0,0,17.28,7.485c.166-.377.286-.772.442-1.154a1.653,1.653,0,0,1,1.9-.973,1.6,1.6,0,0,1,1.292,1.78,7.326,7.326,0,0,1-.587,1.732,12.576,12.576,0,0,1-8.163,7.035,12.768,12.768,0,0,1-16.25-12.477Z" transform="translate(-5073.928 -5309.057)"/></g><g transform="translate(31.012 6.333)"><path class="ad" d="M5063.57,5326.745c0-2.483,0-4.969,0-7.452a3.523,3.523,0,0,1,.1-.8,1.869,1.869,0,0,1,3.594-.028,2.566,2.566,0,0,1,.089.652q.007,7.48,0,14.962a1.955,1.955,0,0,1-1.108,1.955,1.875,1.875,0,0,1-2.675-1.753C5063.564,5331.771,5063.571,5329.258,5063.57,5326.745Z" transform="translate(-5063.568 -5317.126)"/></g><g transform="translate(30.975 0.069)"><path class="ad" d="M5065.447,5313a1.928,1.928,0,1,1,1.939-1.9A1.928,1.928,0,0,1,5065.447,5313Z" transform="translate(-5063.521 -5309.145)"/></g></g><g class="d" transform="translate(245.356 454.411)"><g class="ae"><path class="h" d="M5328.21,5529.285l4.8-39.089,86.862,10.667v28.422Z" transform="translate(-5010.963 -5480.624)"/><path class="h" d="M5326.746,5529.247l4.818-39.229,1.131.14-4.8,39.089Z" transform="translate(-5010.647 -5480.586)"/><path class="af" d="M5325.282,5529.209l4.834-39.367,1.132.139-4.817,39.229Z" transform="translate(-5010.333 -5480.548)"/><path class="ag" d="M5323.817,5529.171l4.851-39.507,1.132.14-4.834,39.367Z" transform="translate(-5010.018 -5480.509)"/><path class="ah" d="M5322.354,5529.133l4.869-39.646,1.132.14-4.851,39.506Z" transform="translate(-5009.703 -5480.471)"/><path class="ai" d="M5320.89,5529.094l4.885-39.783,1.132.139-4.868,39.645Z" transform="translate(-5009.388 -5480.434)"/><path class="aj" d="M5319.425,5529.056l4.9-39.923,1.133.139-4.886,39.784Z" transform="translate(-5009.072 -5480.395)"/><path class="ak" d="M5317.96,5529.018l4.92-40.061,1.133.138-4.9,39.923Z" transform="translate(-5008.757 -5480.357)"/><path class="al" d="M5316.5,5528.98l4.938-40.2,1.132.139-4.92,40.062Z" transform="translate(-5008.442 -5480.32)"/><path class="am" d="M5315.032,5528.942l4.953-40.341,1.133.139-4.937,40.2Z" transform="translate(-5008.128 -5480.281)"/><path class="an" d="M5313.568,5528.9l4.971-40.479,1.132.139-4.954,40.34Z" transform="translate(-5007.813 -5480.243)"/><path class="ao" d="M5312.1,5528.865l4.988-40.617,1.132.139-4.971,40.478Z" transform="translate(-5007.498 -5480.205)"/><path class="ap" d="M5310.64,5528.828l5.005-40.758,1.132.139-4.988,40.619Z" transform="translate(-5007.183 -5480.166)"/><path class="aq" d="M5309.175,5528.79l5.022-40.9,1.133.14-5.005,40.758Z" transform="translate(-5006.867 -5480.127)"/><path class="ar" d="M5307.712,5528.752l5.039-41.036,1.132.138-5.022,40.9Z" transform="translate(-5006.553 -5480.091)"/><path class="as" d="M5306.247,5528.713l5.056-41.174,1.132.14-5.04,41.035Z" transform="translate(-5006.237 -5480.052)"/><path class="at" d="M5304.783,5528.675l5.073-41.313,1.132.139-5.057,41.174Z" transform="translate(-5005.923 -5480.014)"/><path class="au" d="M5303.318,5528.637l5.09-41.452,1.133.139-5.074,41.313Z" transform="translate(-5005.606 -5479.976)"/><path class="av" d="M5301.854,5528.6l5.107-41.592,1.132.14L5303,5528.6Z" transform="translate(-5005.293 -5479.937)"/><path class="aw" d="M5300.39,5528.561l5.125-41.73,1.131.138-5.108,41.592Z" transform="translate(-5004.977 -5479.9)"/><path class="ax" d="M5298.927,5528.522l5.141-41.869,1.132.139-5.125,41.73Z" transform="translate(-5004.664 -5479.862)"/><path class="ay" d="M5297.461,5528.485l5.159-42.008,1.131.139-5.141,41.87Z" transform="translate(-5004.347 -5479.824)"/><path class="e" d="M5296,5528.446l5.176-42.148,1.132.14-5.159,42.009Z" transform="translate(-5004.033 -5479.785)"/><path class="az" d="M5294.533,5528.409l5.193-42.287,1.132.138-5.176,42.148Z" transform="translate(-5003.717 -5479.748)"/><path class="ba" d="M5293.069,5528.371l5.21-42.426,1.132.139-5.192,42.287Z" transform="translate(-5003.402 -5479.709)"/><path class="bb" d="M5291.6,5528.332l5.228-42.563,1.133.138-5.21,42.425Z" transform="translate(-5003.087 -5479.672)"/><path class="bc" d="M5290.142,5528.294l5.244-42.7,1.132.139-5.227,42.565Z" transform="translate(-5002.773 -5479.633)"/><path class="bd" d="M5288.676,5528.256l5.262-42.843,1.131.139-5.244,42.7Z" transform="translate(-5002.457 -5479.595)"/><path class="be" d="M5287.212,5528.218l5.278-42.982,1.133.139-5.262,42.843Z" transform="translate(-5002.142 -5479.557)"/><path class="bf" d="M5285.748,5528.18l5.3-43.122,1.132.14-5.278,42.981Z" transform="translate(-5001.827 -5479.518)"/><path class="bg" d="M5284.284,5528.141l5.313-43.259,1.132.139-5.3,43.12Z" transform="translate(-5001.513 -5479.481)"/><path class="bh" d="M5282.82,5528.1l5.329-43.4,1.133.138-5.314,43.26Z" transform="translate(-5001.198 -5479.443)"/><path class="bi" d="M5281.355,5528.065l5.348-43.538,1.132.139-5.33,43.4Z" transform="translate(-5000.882 -5479.404)"/><path class="bj" d="M5279.891,5528.027l5.364-43.677,1.133.139-5.347,43.538Z" transform="translate(-5000.566 -5479.366)"/><path class="bk" d="M5278.427,5527.989l5.381-43.816,1.132.139-5.364,43.677Z" transform="translate(-5000.252 -5479.328)"/><path class="bl" d="M5276.963,5527.951l5.4-43.955,1.132.14-5.381,43.815Z" transform="translate(-4999.937 -5479.29)"/><path class="bm" d="M5275.5,5527.913l5.414-44.094,1.134.14-5.4,43.955Z" transform="translate(-4999.623 -5479.252)"/><path class="bn" d="M5274.035,5527.875l5.431-44.233,1.132.14-5.415,44.094Z" transform="translate(-4999.307 -5479.213)"/><path class="bo" d="M5272.57,5527.836l5.45-44.371,1.132.138-5.433,44.233Z" transform="translate(-4998.993 -5479.175)"/><path class="bp" d="M5271.106,5527.8l5.466-44.511,1.132.139-5.45,44.372Z" transform="translate(-4998.677 -5479.138)"/><path class="bq" d="M5269.642,5527.76l5.483-44.649,1.132.14-5.467,44.509Z" transform="translate(-4998.362 -5479.099)"/><path class="br" d="M5268.177,5527.722l5.5-44.79,1.131.14-5.483,44.65Z" transform="translate(-4998.047 -5479.061)"/><path class="bs" d="M5266.713,5527.684l5.518-44.928,1.132.139-5.5,44.789Z" transform="translate(-4997.732 -5479.023)"/><path class="bt" d="M5265.249,5527.646l5.535-45.067,1.132.139-5.519,44.929Z" transform="translate(-4997.417 -5478.985)"/><path class="bu" d="M5263.785,5527.608l5.552-45.206,1.132.14-5.535,45.066Z" transform="translate(-4997.102 -5478.947)"/><path class="bv" d="M5262.321,5527.569l5.568-45.345,1.133.139-5.552,45.206Z" transform="translate(-4996.787 -5478.909)"/><path class="bw" d="M5260.857,5527.532l5.585-45.483,1.132.139-5.568,45.345Z" transform="translate(-4996.473 -5478.872)"/><path class="bx" d="M5259.393,5527.494l5.6-45.623,1.132.139-5.586,45.484Z" transform="translate(-4996.158 -5478.833)"/><path class="by" d="M5257.929,5527.456l5.619-45.762,1.133.139-5.6,45.623Z" transform="translate(-4995.842 -5478.795)"/><path class="bz" d="M5256.464,5527.417l5.638-45.9,1.132.138-5.62,45.762Z" transform="translate(-4995.527 -5478.757)"/><path class="ca" d="M5255,5527.379l5.655-46.04,1.132.139-5.637,45.9Z" transform="translate(-4995.212 -5478.719)"/><path class="cb" d="M5253.536,5527.341l5.671-46.18,1.132.14-5.655,46.04Z" transform="translate(-4994.897 -5478.68)"/><path class="cc" d="M5252.072,5527.3l5.688-46.318,1.132.139-5.673,46.18Z" transform="translate(-4994.583 -5478.642)"/><path class="cd" d="M5250.607,5527.265l5.705-46.458,1.133.139-5.688,46.319Z" transform="translate(-4994.267 -5478.604)"/><path class="ce" d="M5249.143,5527.228l5.722-46.6,1.132.139-5.7,46.458Z" transform="translate(-4993.952 -5478.566)"/><path class="cf" d="M5247.679,5527.188l5.739-46.735,1.133.139-5.723,46.6Z" transform="translate(-4993.636 -5478.528)"/><path class="cg" d="M5246.215,5527.15l5.757-46.875,1.132.139-5.74,46.736Z" transform="translate(-4993.321 -5478.49)"/><path class="ch" d="M5244.751,5527.112l5.773-47.014,1.133.14-5.757,46.874Z" transform="translate(-4993.007 -5478.451)"/><path class="ci" d="M5243.287,5527.075l5.791-47.153,1.132.14-5.774,47.013Z" transform="translate(-4992.693 -5478.414)"/><path class="cj" d="M5241.822,5527.037l5.808-47.292,1.132.139-5.789,47.153Z" transform="translate(-4992.377 -5478.375)"/><path class="ck" d="M5240.358,5527l5.825-47.431,1.132.138L5241.507,5527Z" transform="translate(-4992.062 -5478.337)"/><path class="cl" d="M5238.894,5526.96l5.842-47.569,1.132.139-5.825,47.43Z" transform="translate(-4991.747 -5478.299)"/><path class="cm" d="M5237.43,5526.922l5.859-47.708,1.132.139-5.842,47.569Z" transform="translate(-4991.432 -5478.261)"/><path class="cn" d="M5235.966,5526.884l5.876-47.848,1.132.139-5.858,47.708Z" transform="translate(-4991.117 -5478.223)"/><path class="co" d="M5234.5,5526.847l5.894-47.987,1.131.139-5.876,47.849Z" transform="translate(-4990.801 -5478.186)"/><path class="cp" d="M5233.037,5526.808l5.911-48.126,1.132.139-5.893,47.987Z" transform="translate(-4990.487 -5478.147)"/><path class="cq" d="M5231.573,5526.769l5.927-48.265,1.132.139-5.91,48.126Z" transform="translate(-4990.172 -5478.108)"/><path class="cr" d="M5230.109,5526.731l5.944-48.4,1.131.139-5.926,48.265Z" transform="translate(-4989.857 -5478.07)"/><path class="cs" d="M5228.645,5526.694l5.961-48.543,1.132.14-5.944,48.4Z" transform="translate(-4989.542 -5478.033)"/><path class="ct" d="M5227.181,5526.662l5.976-48.662h.173l.961.119-5.961,48.543Z" transform="translate(-4989.228 -5478)"/><path class="cu" d="M5225.716,5526.662l5.976-48.662h1.149l-5.977,48.662Z" transform="translate(-4988.912 -5478)"/><path class="cv" d="M5224.252,5526.662l5.976-48.662h1.149l-5.976,48.662Z" transform="translate(-4988.597 -5478)"/><path class="cw" d="M5222.788,5526.662l5.976-48.662h1.149l-5.976,48.662Z" transform="translate(-4988.282 -5478)"/><path class="cx" d="M5221.324,5526.662,5227.3,5478h1.149l-5.978,48.662Z" transform="translate(-4987.967 -5478)"/><path class="cy" d="M5219.859,5526.662l5.976-48.662h1.148l-5.975,48.662Z" transform="translate(-4987.652 -5478)"/><path class="cz" d="M5218.395,5526.662l5.977-48.662h1.149l-5.976,48.662Z" transform="translate(-4987.336 -5478)"/><path class="da" d="M5216.931,5526.662l5.976-48.662h1.15l-5.977,48.662Z" transform="translate(-4987.022 -5478)"/><path class="db" d="M5215.467,5526.662l5.976-48.662h1.15l-5.976,48.662Z" transform="translate(-4986.707 -5478)"/><path class="dc" d="M5214,5526.662l5.976-48.662h1.149l-5.976,48.662Z" transform="translate(-4986.392 -5478)"/><path class="dd" d="M5212.539,5526.662l5.976-48.662h1.149l-5.977,48.662Z" transform="translate(-4986.077 -5478)"/><path class="de" d="M5211.074,5526.662,5217.05,5478h1.15l-5.977,48.662Z" transform="translate(-4985.762 -5478)"/><path class="df" d="M5209.609,5526.662l5.977-48.662h1.148l-5.976,48.662Z" transform="translate(-4985.446 -5478)"/><path class="dg" d="M5208.146,5526.662l5.976-48.662h1.149l-5.977,48.662Z" transform="translate(-4985.131 -5478)"/><path class="dh" d="M5206.682,5526.662l5.976-48.662h1.149l-5.976,48.662Z" transform="translate(-4984.816 -5478)"/><path class="di" d="M5205.217,5526.662l5.977-48.662h1.148l-5.975,48.662Z" transform="translate(-4984.501 -5478)"/><path class="dj" d="M5203.753,5526.662l5.977-48.662h1.149l-5.977,48.662Z" transform="translate(-4984.186 -5478)"/><path class="dk" d="M5202.289,5526.662l5.976-48.662h1.15l-5.977,48.662Z" transform="translate(-4983.872 -5478)"/><path class="dl" d="M5200.825,5526.662,5206.8,5478h1.149l-5.975,48.662Z" transform="translate(-4983.557 -5478)"/><path class="dm" d="M5199.36,5526.662l5.976-48.662h1.15l-5.977,48.662Z" transform="translate(-4983.242 -5478)"/><path class="dn" d="M5197.9,5526.662l5.976-48.662h1.149l-5.975,48.662Z" transform="translate(-4982.927 -5478)"/><path class="do" d="M5196.433,5526.662l5.975-48.662h1.148l-5.975,48.662Z" transform="translate(-4982.612 -5478)"/><path class="dp" d="M5194.968,5526.662l5.977-48.662h1.148l-5.976,48.662Z" transform="translate(-4982.296 -5478)"/><path class="dq" d="M5193.5,5526.662l5.976-48.662h1.15l-5.977,48.662Z" transform="translate(-4981.982 -5478)"/><path class="dr" d="M5192.04,5526.662l5.976-48.662h1.149l-5.975,48.662Z" transform="translate(-4981.667 -5478)"/><path class="ds" d="M5190.575,5526.662l5.976-48.662h1.15l-5.977,48.662Z" transform="translate(-4981.351 -5478)"/><path class="dt" d="M5189.111,5526.662l5.976-48.662h1.149l-5.975,48.662Z" transform="translate(-4981.037 -5478)"/><path class="du" d="M5187.647,5526.662l5.975-48.662h1.148l-5.975,48.662Z" transform="translate(-4980.723 -5478)"/><path class="dv" d="M5186.183,5526.662l5.977-48.662h1.149l-5.976,48.662Z" transform="translate(-4980.407 -5478)"/><path class="dw" d="M5184.719,5526.662l5.976-48.662h1.15l-5.977,48.662Z" transform="translate(-4980.092 -5478)"/><path class="dx" d="M5183.255,5526.662,5189.23,5478h1.149l-5.976,48.662Z" transform="translate(-4979.777 -5478)"/><path class="dy" d="M5181.79,5526.662l5.976-48.662h1.15l-5.977,48.662Z" transform="translate(-4979.462 -5478)"/><path class="dz" d="M5180.326,5526.662,5186.3,5478h1.149l-5.976,48.662Z" transform="translate(-4979.146 -5478)"/><path class="ea" d="M5178.862,5526.662l5.975-48.662h1.148l-5.975,48.662Z" transform="translate(-4978.832 -5478)"/><path class="eb" d="M5177.4,5526.662l5.976-48.662h1.15l-5.976,48.662Z" transform="translate(-4978.516 -5478)"/><path class="ec" d="M5175.934,5526.662l5.976-48.662h1.149l-5.975,48.662Z" transform="translate(-4978.201 -5478)"/><path class="ed" d="M5174.47,5526.662l5.975-48.662h1.149l-5.975,48.662Z" transform="translate(-4977.887 -5478)"/><path class="ee" d="M5173,5526.662,5178.98,5478h1.15l-5.977,48.662Z" transform="translate(-4977.571 -5478)"/><path class="ef" d="M5171.541,5526.662l5.976-48.662h1.15l-5.976,48.662Z" transform="translate(-4977.257 -5478)"/><path class="eg" d="M5170.077,5526.662l5.975-48.662h1.148l-5.975,48.662Z" transform="translate(-4976.942 -5478)"/><path class="eh" d="M5168.612,5526.662l5.976-48.662h1.151l-5.977,48.662Z" transform="translate(-4976.626 -5478)"/><path class="ei" d="M5167.148,5526.662l5.976-48.662h1.149l-5.975,48.662Z" transform="translate(-4976.311 -5478)"/><path class="ej" d="M5166.413,5526.662l-.715-.088,5.965-48.574h1.148l-5.976,48.662Z" transform="translate(-4975.999 -5478)"/><path class="ek" d="M5165.387,5526.574l-1.131-.139L5170.2,5478h1.15Z" transform="translate(-4975.689 -5478)"/><path class="el" d="M5163.945,5526.435l-1.132-.139,5.932-48.3h1.148Z" transform="translate(-4975.378 -5478)"/><path class="em" d="M5162.5,5526.3l-1.132-.138,5.914-48.157h1.149Z" transform="translate(-4975.069 -5478)"/><path class="en" d="M5161.061,5526.157l-1.132-.139,5.9-48.018h1.149Z" transform="translate(-4974.758 -5478)"/><path class="eo" d="M5159.618,5526.018l-1.132-.14,5.88-47.878h1.15Z" transform="translate(-4974.448 -5478)"/><path class="ep" d="M5158.175,5525.878l-1.133-.139,5.864-47.739h1.148Z" transform="translate(-4974.137 -5478)"/><path class="eq" d="M5156.732,5525.739l-1.131-.14,5.846-47.6h1.15Z" transform="translate(-4973.827 -5478)"/><path class="er" d="M5155.29,5525.6l-1.132-.138,5.829-47.462h1.149Z" transform="translate(-4973.517 -5478)"/><path class="es" d="M5153.848,5525.462l-1.132-.139,5.812-47.323h1.148Z" transform="translate(-4973.206 -5478)"/><path class="et" d="M5152.406,5525.323l-1.133-.14,5.794-47.183h1.15Z" transform="translate(-4972.896 -5478)"/><path class="eu" d="M5150.963,5525.183l-1.132-.138,5.777-47.044h1.149Z" transform="translate(-4972.585 -5478)"/><path class="ev" d="M5149.521,5525.044l-1.132-.139,5.761-46.905h1.148Z" transform="translate(-4972.275 -5478)"/><path class="ew" d="M5148.078,5524.905l-1.131-.139,5.743-46.767h1.149Z" transform="translate(-4971.965 -5478)"/><path class="ex" d="M5146.635,5524.767l-1.131-.139L5151.23,5478h1.149Z" transform="translate(-4971.654 -5478)"/><path class="ey" d="M5145.194,5524.627l-1.133-.139L5149.77,5478h1.149Z" transform="translate(-4971.344 -5478)"/><path class="ez" d="M5143.751,5524.488l-1.133-.139,5.692-46.349h1.149Z" transform="translate(-4971.034 -5478)"/><path class="fa" d="M5142.309,5524.349l-1.132-.139,5.675-46.21H5148Z" transform="translate(-4970.724 -5478)"/><path class="fb" d="M5140.866,5524.21l-1.133-.138,5.658-46.072h1.149Z" transform="translate(-4970.413 -5478)"/><path class="fc" d="M5139.424,5524.072l-1.133-.139,5.641-45.933h1.149Z" transform="translate(-4970.103 -5478)"/><path class="fd" d="M5137.981,5523.933l-1.132-.14,5.624-45.793h1.149Z" transform="translate(-4969.794 -5478)"/><path class="fe" d="M5136.539,5523.793l-1.132-.139,5.605-45.654h1.148Z" transform="translate(-4969.483 -5478)"/><path class="ff" d="M5135.1,5523.654l-1.133-.139,5.589-45.515h1.149Z" transform="translate(-4969.172 -5478)"/><path class="fg" d="M5133.654,5523.515l-1.133-.138,5.573-45.376h1.149Z" transform="translate(-4968.862 -5478)"/><path class="fh" d="M5132.211,5523.376l-1.132-.139,5.555-45.237h1.149Z" transform="translate(-4968.551 -5478)"/><path class="fi" d="M5130.768,5523.237l-1.131-.139,5.539-45.1h1.147Z" transform="translate(-4968.241 -5478)"/><path class="fj" d="M5129.326,5523.1l-1.132-.139,5.521-44.959h1.149Z" transform="translate(-4967.931 -5478)"/><path class="fk" d="M5127.883,5522.959l-1.131-.139,5.5-44.82h1.149Z" transform="translate(-4967.621 -5478)"/><path class="fl" d="M5126.441,5522.82l-1.132-.139L5130.8,5478h1.149Z" transform="translate(-4967.31 -5478)"/><path class="fm" d="M5125,5522.681l-1.133-.14,5.47-44.541h1.15Z" transform="translate(-4966.999 -5478)"/><path class="fn" d="M5123.558,5522.541l-1.133-.139,5.453-44.4h1.15Z" transform="translate(-4966.689 -5478)"/><path class="fo" d="M5122.114,5522.4l-1.132-.138,5.436-44.264h1.148Z" transform="translate(-4966.379 -5478)"/><path class="fp" d="M5120.672,5522.264l-1.132-.14,5.419-44.124h1.149Z" transform="translate(-4966.069 -5478)"/><path class="fq" d="M5119.229,5522.124l-1.132-.138,5.4-43.985h1.149Z" transform="translate(-4965.758 -5478)"/><path class="fr" d="M5117.787,5521.985l-1.132-.139,5.384-43.846h1.149Z" transform="translate(-4965.449 -5478)"/><path class="fs" d="M5116.345,5521.846l-1.133-.139L5120.58,5478h1.149Z" transform="translate(-4965.138 -5478)"/><path class="ft" d="M5114.9,5521.707l-1.132-.139,5.352-43.568h1.148Z" transform="translate(-4964.828 -5478)"/><path class="fu" d="M5113.46,5521.568l-1.132-.139,5.333-43.429h1.149Z" transform="translate(-4964.518 -5478)"/><path class="fv" d="M5112.018,5521.429l-1.132-.139L5116.2,5478h1.149Z" transform="translate(-4964.207 -5478)"/><path class="fw" d="M5110.575,5521.29l-1.132-.139,5.3-43.151h1.15Z" transform="translate(-4963.896 -5478)"/><path class="fx" d="M5109.133,5521.151l-1.133-.139,5.282-43.012h1.15Z" transform="translate(-4963.586 -5478)"/><path class="fy" d="M5107.689,5521.012l-1.132-.138,5.265-42.874h1.15Z" transform="translate(-4963.275 -5478)"/><path class="fz" d="M5106.248,5520.874l-1.133-.139,5.248-42.734h1.149Z" transform="translate(-4962.965 -5478)"/><path class="ga" d="M5104.806,5520.734l-1.133-.139,5.23-42.6h1.149Z" transform="translate(-4962.655 -5478)"/><path class="gb" d="M5103.362,5520.6l-1.131-.14,5.213-42.456h1.15Z" transform="translate(-4962.344 -5478)"/><path class="gc" d="M5101.92,5520.456l-1.132-.139,5.2-42.316h1.149Z" transform="translate(-4962.035 -5478)"/><path class="gd" d="M5100.479,5520.316l-1.133-.138,5.18-42.178h1.148Z" transform="translate(-4961.724 -5478)"/><path class="ge" d="M5099.036,5520.178l-1.132-.139,5.163-42.039h1.149Z" transform="translate(-4961.414 -5478)"/><path class="gf" d="M5097.592,5520.039l-1.132-.138,5.146-41.9h1.149Z" transform="translate(-4961.103 -5478)"/><path class="gg" d="M5096.15,5519.9l-1.133-.14,5.129-41.761h1.149Z" transform="translate(-4960.793 -5478)"/><path class="gh" d="M5094.708,5519.761l-1.132-.139,5.111-41.622h1.149Z" transform="translate(-4960.483 -5478)"/><path class="gi" d="M5093.266,5519.622l-1.132-.139,5.094-41.483h1.149Z" transform="translate(-4960.173 -5478)"/><path class="gj" d="M5091.823,5519.483l-1.132-.139,5.078-41.344h1.149Z" transform="translate(-4959.862 -5478)"/><path class="gk" d="M5090.382,5519.344l-1.133-.139,5.06-41.2h1.149Z" transform="translate(-4959.553 -5478)"/><path class="gl" d="M5088.938,5519.2l-1.132-.139,5.042-41.065H5094Z" transform="translate(-4959.242 -5478)"/><path class="gm" d="M5087.5,5519.065l-1.132-.139L5091.39,5478h1.149Z" transform="translate(-4958.931 -5478)"/><path class="gn" d="M5086.053,5518.926l-1.132-.138L5089.93,5478h1.149Z" transform="translate(-4958.621 -5478)"/><path class="go" d="M5084.61,5518.788l-1.132-.139,4.992-40.649h1.149Z" transform="translate(-4958.311 -5478)"/><path class="gp" d="M5083.168,5518.649l-1.132-.139,4.976-40.51h1.148Z" transform="translate(-4958 -5478)"/><path class="gq" d="M5081.726,5518.51l-1.132-.14,4.958-40.37h1.149Z" transform="translate(-4957.689 -5478)"/><path class="gr" d="M5080.284,5518.37l-1.132-.139,4.94-40.231h1.15Z" transform="translate(-4957.379 -5478)"/><path class="gs" d="M5078.842,5518.231l-1.133-.138,4.923-40.093h1.149Z" transform="translate(-4957.068 -5478)"/><path class="gt" d="M5077.4,5518.093l-1.132-.139,4.907-39.954h1.15Z" transform="translate(-4956.759 -5478)"/><path class="gu" d="M5075.957,5517.954l-1.132-.139,4.889-39.814h1.149Z" transform="translate(-4956.448 -5478)"/><path class="gv" d="M5074.514,5517.814l-1.133-.139,4.873-39.675h1.149Z" transform="translate(-4956.138 -5478)"/><path class="gw" d="M5073.071,5517.675l-1.133-.139,4.856-39.537h1.148Z" transform="translate(-4955.828 -5478)"/><path class="gx" d="M5071.629,5517.537l-1.133-.139,4.839-39.4h1.148Z" transform="translate(-4955.518 -5478)"/><path class="gy" d="M5070.187,5517.4l-1.133-.139,4.822-39.258h1.15Z" transform="translate(-4955.208 -5478)"/><path class="gz" d="M5068.743,5517.258l-1.131-.139,4.8-39.119h1.149Z" transform="translate(-4954.897 -5478)"/><path class="ha" d="M5067.3,5517.119l-1.133-.138,4.788-38.981h1.148Z" transform="translate(-4954.587 -5478)"/><path class="hb" d="M5065.859,5516.981l-1.132-.139L5069.5,5478h1.149Z" transform="translate(-4954.277 -5478)"/><path class="hc" d="M5064.417,5516.842l-1.131-.139,4.752-38.7h1.149Z" transform="translate(-4953.966 -5478)"/><path class="hd" d="M5062.974,5516.7l-1.132-.139,4.736-38.563h1.149Z" transform="translate(-4953.655 -5478)"/><path class="he" d="M5061.532,5516.563l-1.133-.14,4.72-38.424h1.148Z" transform="translate(-4953.345 -5478)"/><path class="hf" d="M5060.09,5516.424l-1.132-.138,4.7-38.286h1.149Z" transform="translate(-4953.036 -5478)"/><path class="hg" d="M5058.646,5516.286l-1.132-.139L5062.2,5478h1.15Z" transform="translate(-4952.724 -5478)"/><path class="hh" d="M5057.2,5516.146l-1.132-.139L5060.74,5478h1.149Z" transform="translate(-4952.414 -5478)"/><path class="hi" d="M5055.762,5516.007l-1.132-.139,4.65-37.868h1.149Z" transform="translate(-4952.104 -5478)"/><path class="hj" d="M5054.32,5515.868l-1.133-.139,4.634-37.729h1.148Z" transform="translate(-4951.793 -5478)"/><path class="hk" d="M5052.877,5515.729l-1.132-.139,4.617-37.59h1.149Z" transform="translate(-4951.483 -5478)"/><path class="hl" d="M5051.435,5515.59l-1.132-.14,4.6-37.451h1.148Z" transform="translate(-4951.173 -5478)"/><path class="hm" d="M5049.992,5515.451l-1.131-.139,4.582-37.312h1.149Z" transform="translate(-4950.863 -5478)"/><path class="hn" d="M5048.55,5515.312l-1.132-.139,4.565-37.173h1.148Z" transform="translate(-4950.552 -5478)"/><path class="y" d="M5047.108,5515.173l-1.132-.139,4.548-37.034h1.149Z" transform="translate(-4950.243 -5478)"/><path class="ho" d="M5045.665,5515.034l-1.132-.138,4.531-36.9h1.15Z" transform="translate(-4949.933 -5478)"/><path class="hp" d="M5044.223,5514.9l-1.132-.14L5047.6,5478h1.148Z" transform="translate(-4949.621 -5478)"/><path class="hq" d="M5042.781,5514.755l-1.132-.138,4.5-36.617h1.15Z" transform="translate(-4949.312 -5478)"/><path class="hr" d="M5041.338,5514.617l-1.132-.139,4.479-36.478h1.148Z" transform="translate(-4949.001 -5478)"/><path class="hs" d="M5039.9,5514.478l-1.132-.139,4.463-36.339h1.149Z" transform="translate(-4948.691 -5478)"/><path class="ht" d="M5038.453,5514.339l-1.132-.139,4.445-36.2h1.149Z" transform="translate(-4948.381 -5478)"/><path class="hu" d="M5037.011,5514.2l-1.133-.14,4.429-36.06h1.149Z" transform="translate(-4948.069 -5478)"/><path class="hv" d="M5035.567,5514.06l-1.131-.138,4.411-35.922H5040Z" transform="translate(-4947.76 -5478)"/><path class="hw" d="M5034.125,5513.922l-1.132-.139,4.395-35.783h1.148Z" transform="translate(-4947.449 -5478)"/><path class="i" d="M5032.683,5513.783l-1.132-.139,4.377-35.644h1.15Z" transform="translate(-4947.139 -5478)"/><path class="hx" d="M5031.24,5513.644l-1.132-.139,4.36-35.5h1.148Z" transform="translate(-4946.828 -5478)"/><path class="hy" d="M5029.8,5513.5l-1.131-.14,4.343-35.365h1.148Z" transform="translate(-4946.518 -5478)"/><path class="hz" d="M5028.356,5513.365l-1.132-.139,4.326-35.227h1.149Z" transform="translate(-4946.208 -5478)"/><path class="ia" d="M5026.914,5513.227l-1.133-.139L5030.09,5478h1.149Z" transform="translate(-4945.897 -5478)"/><path class="ib" d="M5025.471,5513.087l-1.132-.138,4.292-34.949h1.15Z" transform="translate(-4945.588 -5478)"/><path class="ic" d="M5024.028,5512.949l-1.132-.139,4.274-34.81h1.149Z" transform="translate(-4945.277 -5478)"/><path class="id" d="M5022.586,5512.81l-1.132-.14,4.257-34.67h1.15Z" transform="translate(-4944.967 -5478)"/><path class="ie" d="M5021.144,5512.67l-1.133-.139,4.242-34.531h1.149Z" transform="translate(-4944.655 -5478)"/><path class="if" d="M5019.7,5512.531l-1.132-.138,4.224-34.393h1.149Z" transform="translate(-4944.346 -5478)"/><path class="ig" d="M5018.26,5512.393l-1.133-.14,4.206-34.253h1.149Z" transform="translate(-4944.036 -5478)"/><path class="ih" d="M5016.817,5512.253l-1.133-.138,4.19-34.115h1.149Z" transform="translate(-4943.725 -5478)"/><path class="ii" d="M5015.374,5512.115l-1.132-.14,4.172-33.975h1.15Z" transform="translate(-4943.415 -5478)"/><path class="ij" d="M5013.931,5511.975l-1.132-.138,4.154-33.836h1.149Z" transform="translate(-4943.104 -5478)"/><path class="ik" d="M5012.489,5511.836l-1.132-.139,4.139-33.7h1.149Z" transform="translate(-4942.793 -5478)"/><path class="il" d="M5011.046,5511.7l-1.131-.139,4.121-33.558h1.149Z" transform="translate(-4942.484 -5478)"/><path class="im" d="M5009.6,5511.558l-1.131-.139,4.1-33.419h1.149Z" transform="translate(-4942.173 -5478)"/><path class="in" d="M5008.162,5511.419l-1.132-.14,4.087-33.28h1.149Z" transform="translate(-4941.863 -5478)"/><path class="io" d="M5006.719,5511.28l-1.133-.139,4.07-33.141h1.15Z" transform="translate(-4941.552 -5478)"/><path class="ip" d="M5005.275,5511.141l-1.131-.139,4.053-33h1.149Z" transform="translate(-4941.243 -5478)"/><path class="iq" d="M5003.834,5511l-1.132-.139,4.036-32.863h1.148Z" transform="translate(-4940.933 -5478)"/><path class="ir" d="M5002.392,5510.863l-1.132-.138,4.018-32.725h1.149Z" transform="translate(-4940.622 -5478)"/><path class="is" d="M5000.949,5510.725l-1.132-.14,4-32.584h1.148Z" transform="translate(-4940.313 -5478)"/><path class="it" d="M4999.506,5510.584l-1.132-.138,3.985-32.447h1.149Z" transform="translate(-4940.001 -5478)"/><path class="iu" d="M4998.064,5510.447l-1.132-.14L5000.9,5478h1.149Z" transform="translate(-4939.691 -5478)"/><path class="iv" d="M4996.622,5510.307l-1.132-.14,3.95-32.167h1.15Z" transform="translate(-4939.38 -5478)"/><path class="iw" d="M4995.179,5510.167l-1.132-.138L4997.98,5478h1.149Z" transform="translate(-4939.07 -5478)"/><path class="ix" d="M4993.737,5510.029l-1.132-.14,3.916-31.889h1.148Z" transform="translate(-4938.76 -5478)"/><path class="iy" d="M4992.3,5509.889l-1.133-.138,3.9-31.751h1.15Z" transform="translate(-4938.45 -5478)"/><path class="iz" d="M4990.853,5509.751l-1.132-.139L4993.6,5478h1.149Z" transform="translate(-4938.14 -5478)"/><path class="ja" d="M4989.409,5509.612l-1.132-.139,3.865-31.473h1.149Z" transform="translate(-4937.828 -5478)"/><path class="jb" d="M4987.968,5509.473l-1.133-.139,3.848-31.333h1.149Z" transform="translate(-4937.519 -5478)"/><path class="jc" d="M4986.524,5509.333l-1.131-.139,3.831-31.194h1.149Z" transform="translate(-4937.208 -5478)"/><path class="jd" d="M4985.082,5509.194l-1.132-.139,3.814-31.056h1.149Z" transform="translate(-4936.897 -5478)"/><path class="je" d="M4983.64,5509.056l-1.132-.139,3.8-30.917h1.149Z" transform="translate(-4936.587 -5478)"/><path class="jf" d="M4982.2,5508.917l-1.133-.139,3.78-30.777h1.149Z" transform="translate(-4936.277 -5478)"/><path class="jg" d="M4980.755,5508.777l-1.132-.139,3.763-30.638h1.15Z" transform="translate(-4935.967 -5478)"/><path class="jh" d="M4979.312,5508.638l-1.131-.138,3.746-30.5h1.149Z" transform="translate(-4935.657 -5478)"/><path class="ji" d="M4977.87,5508.5l-1.132-.139,3.729-30.361h1.149Z" transform="translate(-4935.346 -5478)"/><path class="jj" d="M4976.428,5508.361l-1.132-.14,3.711-30.221h1.15Z" transform="translate(-4935.036 -5478)"/><path class="jk" d="M4974.985,5508.221l-1.132-.139,3.693-30.082h1.149Z" transform="translate(-4934.727 -5478)"/><path class="jl" d="M4973.543,5508.082l-1.132-.138,3.677-29.944h1.149Z" transform="translate(-4934.416 -5478)"/><path class="jm" d="M4972.1,5507.944l-1.133-.139,3.661-29.8h1.15Z" transform="translate(-4934.105 -5478)"/><path class="jn" d="M4970.657,5507.8l-1.131-.139,3.643-29.666h1.15Z" transform="translate(-4933.794 -5478)"/><path class="jo" d="M4969.216,5507.666l-1.132-.139L4971.71,5478h1.149Z" transform="translate(-4933.484 -5478)"/><path class="jp" d="M4967.773,5507.526l-1.132-.139L4970.25,5478h1.149Z" transform="translate(-4933.173 -5478)"/><path class="jq" d="M4966.331,5507.387l-1.131-.139,3.59-29.249h1.15Z" transform="translate(-4932.864 -5478)"/><path class="jr" d="M4964.889,5507.249l-1.133-.139,3.575-29.109h1.15Z" transform="translate(-4932.553 -5478)"/><path class="js" d="M4963.445,5507.109l-1.132-.139,3.558-28.97h1.15Z" transform="translate(-4932.243 -5478)"/><path class="jt" d="M4962,5506.97l-1.132-.139,3.54-28.831h1.149Z" transform="translate(-4931.932 -5478)"/><path class="ju" d="M4960.56,5506.831l-1.131-.139,3.523-28.692h1.15Z" transform="translate(-4931.622 -5478)"/><path d="M4959.118,5506.692l-1.132-.138,3.506-28.554h1.149Z" transform="translate(-4931.312 -5478)"/><path d="M4950.673,5506.554,4924,5503.277V5478h30.181Z" transform="translate(-4924 -5478)"/></g></g></g></g></svg>