<svg xmlns="http://www.w3.org/2000/svg" xmlns:xlink="http://www.w3.org/1999/xlink" width="139" height="139" viewBox="0 0 139 139"><defs><style>.a{fill:#03a5a5;}.b{fill:#fff;}.c{filter:url(#a);}</style><filter id="a" x="0" y="0" width="139" height="139" filterUnits="userSpaceOnUse"><feOffset dy="10" input="SourceAlpha"/><feGaussianBlur stdDeviation="10" result="b"/><feFlood flood-opacity="0.161"/><feComposite operator="in" in2="b"/><feComposite in="SourceGraphic"/></filter></defs><g transform="translate(-1187 -9455)"><g class="c" transform="matrix(1, 0, 0, 1, 1187, 9455)"><circle class="a" cx="39.5" cy="39.5" r="39.5" transform="translate(30 20)"/></g><path class="b" d="M40.336,7.616,34.232,36.4c-.461,2.032-1.661,2.537-3.368,1.58l-9.3-6.854-4.488,4.316a2.336,2.336,0,0,1-1.869.912l.668-9.472L33.112,11.31c.749-.668-.163-1.038-1.165-.37L10.637,24.358,1.463,21.486c-2-.623-2.032-2,.415-2.953L37.762,4.709c1.661-.623,3.115.37,2.574,2.908Z" transform="translate(1232.998 9493.472)"/></g></svg>