<svg xmlns="http://www.w3.org/2000/svg" xmlns:xlink="http://www.w3.org/1999/xlink" width="83" height="80" viewBox="0 0 83 80"><defs><style>.a{fill:url(#a);}.b{fill:#fff;}</style><linearGradient id="a" x1="0.032" y1="0.033" x2="1.522" y2="1.513" gradientUnits="objectBoundingBox"><stop offset="0" stop-color="#10ffff"/><stop offset="1" stop-color="#058787"/></linearGradient></defs><g transform="translate(-20106 -3867)"><rect class="a" width="83" height="80" rx="10" transform="translate(20106 3867)"/><g transform="translate(19652.934 3761)"><g transform="translate(479.066 129)"><path class="b" d="M508.336,163.464h-26.6a2.674,2.674,0,0,1-2.671-2.671V131.671A2.674,2.674,0,0,1,481.737,129h26.6a2.674,2.674,0,0,1,2.671,2.671v29.121A2.674,2.674,0,0,1,508.336,163.464Zm-26.284-2.986h25.969V131.986H482.052Z" transform="translate(-479.066 -129)"/></g><g transform="translate(484.506 139.388)"><path class="b" d="M508.636,149.627H489.814a1.12,1.12,0,0,1,0-2.24h18.822a1.12,1.12,0,0,1,0,2.24Z" transform="translate(-488.694 -147.387)"/></g><g transform="translate(487.402 146.543)"><g transform="translate(0 0)"><path class="b" d="M507.97,162.291H494.94a1.12,1.12,0,0,1,0-2.24h13.03a1.12,1.12,0,1,1,0,2.24Z" transform="translate(-493.82 -160.051)"/></g></g></g></g></svg>