<svg xmlns="http://www.w3.org/2000/svg" xmlns:xlink="http://www.w3.org/1999/xlink" width="74.35" height="74.351" viewBox="0 0 74.35 74.351"><defs><style>.a{fill:url(#a);}</style><linearGradient id="a" x1="0.179" y1="0.086" x2="1.345" y2="1.377" gradientUnits="objectBoundingBox"><stop offset="0" stop-color="#10fbfb"/><stop offset="1" stop-color="#087e7e"/></linearGradient></defs><g transform="translate(0)"><g transform="translate(0)"><path class="a" d="M51.116,0H23.234A23.237,23.237,0,0,0,0,23.234V51.116A23.237,23.237,0,0,0,23.234,74.35H51.116A23.237,23.237,0,0,0,74.35,51.116V23.234A23.237,23.237,0,0,0,51.116,0ZM67.38,51.116A16.282,16.282,0,0,1,51.116,67.38H23.234A16.282,16.282,0,0,1,6.97,51.116V23.234A16.282,16.282,0,0,1,23.234,6.97H51.116A16.282,16.282,0,0,1,67.38,23.234Z"/></g><g transform="translate(18.587 18.588)"><path class="a" d="M146.587,128a18.588,18.588,0,1,0,18.587,18.588A18.588,18.588,0,0,0,146.587,128Zm0,30.2A11.617,11.617,0,1,1,158.2,146.588,11.633,11.633,0,0,1,146.587,158.2Z" transform="translate(-128 -128)"/></g><g transform="translate(54.679 14.717)"><ellipse class="a" cx="2.477" cy="2.477" rx="2.477" ry="2.477"/></g></g></svg>