<svg xmlns="http://www.w3.org/2000/svg" width="37.289" height="37.289" viewBox="0 0 37.289 37.289"><defs><style>.a{fill:#2b2b2b;}</style></defs><path class="a" d="M25.637,0H11.653A11.654,11.654,0,0,0,0,11.653V25.637A11.654,11.654,0,0,0,11.653,37.289H25.637A11.654,11.654,0,0,0,37.289,25.637V11.653A11.654,11.654,0,0,0,25.637,0Zm8.157,25.637a8.166,8.166,0,0,1-8.157,8.157H11.653A8.166,8.166,0,0,1,3.5,25.637V11.653A8.166,8.166,0,0,1,11.653,3.5H25.637a8.166,8.166,0,0,1,8.157,8.157Z"/><g transform="translate(9.322 9.322)"><path class="a" d="M137.322,128a9.322,9.322,0,1,0,9.322,9.322A9.323,9.323,0,0,0,137.322,128Zm0,15.149a5.826,5.826,0,1,1,5.826-5.826A5.835,5.835,0,0,1,137.322,143.149Z" transform="translate(-128 -128)"/></g><g transform="translate(27.424 7.381)"><circle class="a" cx="1.242" cy="1.242" r="1.242"/></g></svg>