<svg xmlns="http://www.w3.org/2000/svg" xmlns:xlink="http://www.w3.org/1999/xlink" width="74.677" height="74.678" viewBox="0 0 74.677 74.678"><defs><style>.a{fill:url(#a);}</style><linearGradient id="a" x2="1.725" y2="1.503" gradientUnits="objectBoundingBox"><stop offset="0" stop-color="#10fbfb"/><stop offset="1" stop-color="#087e7e"/></linearGradient></defs><g transform="translate(0)"><g transform="translate(0)"><path class="a" d="M67.209,0H7.468A7.49,7.49,0,0,0,0,7.468V67.21a7.49,7.49,0,0,0,7.468,7.468H67.209a7.49,7.49,0,0,0,7.468-7.468V7.468A7.49,7.49,0,0,0,67.209,0ZM22.4,63.476H11.2v-33.6H22.4ZM16.8,23.523A6.721,6.721,0,1,1,23.523,16.8,6.693,6.693,0,0,1,16.8,23.523ZM63.476,63.476h-11.2V43.686a5.6,5.6,0,1,0-11.2,0v19.79h-11.2v-33.6h11.2v4.481a12.061,12.061,0,0,1,9.335-5.227A13.23,13.23,0,0,1,63.476,42.193Z"/></g></g></svg>